<?xml version="1.0" encoding="utf-8" standalone="no"?>
<!DOCTYPE svg PUBLIC "-//W3C//DTD SVG 1.1//EN"
  "http://www.w3.org/Graphics/SVG/1.1/DTD/svg11.dtd">
<!-- Created with matplotlib (https://matplotlib.org/) -->
<svg height="345.6pt" version="1.1" viewBox="0 0 460.8 345.6" width="460.8pt" xmlns="http://www.w3.org/2000/svg" xmlns:xlink="http://www.w3.org/1999/xlink">
 <defs>
  <style type="text/css">
*{stroke-linecap:butt;stroke-linejoin:round;}
  </style>
 </defs>
 <g id="figure_1">
  <g id="patch_1">
   <path d="M 0 345.6 
L 460.8 345.6 
L 460.8 0 
L 0 0 
z
" style="fill:#ffffff;"/>
  </g>
  <g id="axes_1">
   <g id="patch_2">
    <path clip-path="url(#p40647d9562)" d="M 420.813223 172.8 
Q 377.595003 107.972674 337.477652 47.79665 
" style="fill:none;stroke:#000000;stroke-linecap:round;stroke-width:5;"/>
    <path clip-path="url(#p40647d9562)" d="M 339.141753 61.109455 
L 337.477652 47.79665 
L 349.126356 54.453053 
L 339.141753 61.109455 
z
" style="stroke:#000000;stroke-linecap:round;stroke-width:5;"/>
   </g>
   <g id="patch_3">
    <path clip-path="url(#p40647d9562)" d="M 420.813223 172.8 
Q 285.074501 104.930646 154.335778 39.561292 
" style="fill:none;stroke:#000000;stroke-linecap:round;stroke-width:5;"/>
    <path clip-path="url(#p40647d9562)" d="M 162.385624 50.294418 
L 154.335778 39.561292 
L 167.752186 39.561291 
L 162.385624 50.294418 
z
" style="stroke:#000000;stroke-linecap:round;stroke-width:5;"/>
   </g>
   <g id="patch_4">
    <path clip-path="url(#p40647d9562)" d="M 325.606606 29.990083 
Q 189.867892 97.859448 59.129177 163.228813 
" style="fill:none;stroke:#000000;stroke-linecap:round;stroke-width:5;"/>
    <path clip-path="url(#p40647d9562)" d="M 72.545585 163.228813 
L 59.129177 163.228813 
L 67.179021 152.495686 
L 72.545585 163.228813 
z
" style="stroke:#000000;stroke-linecap:round;stroke-width:5;"/>
   </g>
   <g id="patch_5">
    <path clip-path="url(#p40647d9562)" d="M 325.606606 29.990083 
Q 238.304337 29.990087 156.592238 29.990091 
" style="fill:none;stroke:#000000;stroke-linecap:round;stroke-width:5;"/>
    <path clip-path="url(#p40647d9562)" d="M 168.592238 35.990091 
L 156.592238 29.990091 
L 168.592238 23.990091 
L 168.592238 35.990091 
z
" style="stroke:#000000;stroke-linecap:round;stroke-width:5;"/>
   </g>
   <g id="patch_6">
    <path clip-path="url(#p40647d9562)" d="M 325.606606 29.990083 
Q 234.785094 166.222367 147.064449 297.803349 
" style="fill:none;stroke:#000000;stroke-linecap:round;stroke-width:5;"/>
    <path clip-path="url(#p40647d9562)" d="M 158.713153 291.146946 
L 147.064449 297.803349 
L 148.728549 284.490544 
L 158.713153 291.146946 
z
" style="stroke:#000000;stroke-linecap:round;stroke-width:5;"/>
   </g>
   <g id="patch_7">
    <path clip-path="url(#p40647d9562)" d="M 325.606606 29.990083 
Q 325.606601 164.896381 325.606595 294.21251 
" style="fill:none;stroke:#000000;stroke-linecap:round;stroke-width:5;"/>
    <path clip-path="url(#p40647d9562)" d="M 331.606596 282.21251 
L 325.606595 294.21251 
L 319.606596 282.212509 
L 331.606596 282.21251 
z
" style="stroke:#000000;stroke-linecap:round;stroke-width:5;"/>
   </g>
   <g id="patch_8">
    <path clip-path="url(#p40647d9562)" d="M 135.193377 29.990092 
Q 91.975165 94.817421 51.857821 154.993446 
" style="fill:none;stroke:#000000;stroke-linecap:round;stroke-width:5;"/>
    <path clip-path="url(#p40647d9562)" d="M 63.506524 148.337043 
L 51.857821 154.993446 
L 53.52192 141.680641 
L 63.506524 148.337043 
z
" style="stroke:#000000;stroke-linecap:round;stroke-width:5;"/>
   </g>
   <g id="PathCollection_1">
    <defs>
     <path d="M 0 15.811388 
C 4.193229 15.811388 8.215279 14.145401 11.18034 11.18034 
C 14.145401 8.215279 15.811388 4.193229 15.811388 0 
C 15.811388 -4.193229 14.145401 -8.215279 11.18034 -11.18034 
C 8.215279 -14.145401 4.193229 -15.811388 0 -15.811388 
C -4.193229 -15.811388 -8.215279 -14.145401 -11.18034 -11.18034 
C -14.145401 -8.215279 -15.811388 -4.193229 -15.811388 0 
C -15.811388 4.193229 -14.145401 8.215279 -11.18034 11.18034 
C -8.215279 14.145401 -4.193229 15.811388 0 15.811388 
z
" id="m02ce792c23" style="stroke:#1f77b4;"/>
    </defs>
    <g clip-path="url(#p40647d9562)">
     <use style="fill:#1f77b4;stroke:#1f77b4;" x="420.813223" xlink:href="#m02ce792c23" y="172.8"/>
     <use style="fill:#1f77b4;stroke:#1f77b4;" x="325.606606" xlink:href="#m02ce792c23" y="29.990083"/>
     <use style="fill:#1f77b4;stroke:#1f77b4;" x="135.193377" xlink:href="#m02ce792c23" y="29.990092"/>
     <use style="fill:#1f77b4;stroke:#1f77b4;" x="39.986777" xlink:href="#m02ce792c23" y="172.800014"/>
     <use style="fill:#1f77b4;stroke:#1f77b4;" x="135.193405" xlink:href="#m02ce792c23" y="315.609917"/>
     <use style="fill:#1f77b4;stroke:#1f77b4;" x="325.606595" xlink:href="#m02ce792c23" y="315.609917"/>
    </g>
   </g>
   <g id="text_1">
    <g clip-path="url(#p40647d9562)">
     <!-- A -->
     <defs>
      <path d="M 34.1875 63.1875 
L 20.796875 26.90625 
L 47.609375 26.90625 
z
M 28.609375 72.90625 
L 39.796875 72.90625 
L 67.578125 0 
L 57.328125 0 
L 50.6875 18.703125 
L 17.828125 18.703125 
L 11.1875 0 
L 0.78125 0 
z
" id="DejaVuSans-65"/>
     </defs>
     <g transform="translate(414.656661 177.766875)scale(0.18 -0.18)">
      <use xlink:href="#DejaVuSans-65"/>
     </g>
    </g>
   </g>
   <g id="text_2">
    <g clip-path="url(#p40647d9562)">
     <!-- C -->
     <defs>
      <path d="M 64.40625 67.28125 
L 64.40625 56.890625 
Q 59.421875 61.53125 53.78125 63.8125 
Q 48.140625 66.109375 41.796875 66.109375 
Q 29.296875 66.109375 22.65625 58.46875 
Q 16.015625 50.828125 16.015625 36.375 
Q 16.015625 21.96875 22.65625 14.328125 
Q 29.296875 6.6875 41.796875 6.6875 
Q 48.140625 6.6875 53.78125 8.984375 
Q 59.421875 11.28125 64.40625 15.921875 
L 64.40625 5.609375 
Q 59.234375 2.09375 53.4375 0.328125 
Q 47.65625 -1.421875 41.21875 -1.421875 
Q 24.65625 -1.421875 15.125 8.703125 
Q 5.609375 18.84375 5.609375 36.375 
Q 5.609375 53.953125 15.125 64.078125 
Q 24.65625 74.21875 41.21875 74.21875 
Q 47.75 74.21875 53.53125 72.484375 
Q 59.328125 70.75 64.40625 67.28125 
z
" id="DejaVuSans-67"/>
     </defs>
     <g transform="translate(319.322075 34.956958)scale(0.18 -0.18)">
      <use xlink:href="#DejaVuSans-67"/>
     </g>
    </g>
   </g>
   <g id="text_3">
    <g clip-path="url(#p40647d9562)">
     <!-- B -->
     <defs>
      <path d="M 19.671875 34.8125 
L 19.671875 8.109375 
L 35.5 8.109375 
Q 43.453125 8.109375 47.28125 11.40625 
Q 51.125 14.703125 51.125 21.484375 
Q 51.125 28.328125 47.28125 31.5625 
Q 43.453125 34.8125 35.5 34.8125 
z
M 19.671875 64.796875 
L 19.671875 42.828125 
L 34.28125 42.828125 
Q 41.5 42.828125 45.03125 45.53125 
Q 48.578125 48.25 48.578125 53.8125 
Q 48.578125 59.328125 45.03125 62.0625 
Q 41.5 64.796875 34.28125 64.796875 
z
M 9.8125 72.90625 
L 35.015625 72.90625 
Q 46.296875 72.90625 52.390625 68.21875 
Q 58.5 63.53125 58.5 54.890625 
Q 58.5 48.1875 55.375 44.234375 
Q 52.25 40.28125 46.1875 39.3125 
Q 53.46875 37.75 57.5 32.78125 
Q 61.53125 27.828125 61.53125 20.40625 
Q 61.53125 10.640625 54.890625 5.3125 
Q 48.25 0 35.984375 0 
L 9.8125 0 
z
" id="DejaVuSans-66"/>
     </defs>
     <g transform="translate(129.018533 34.956967)scale(0.18 -0.18)">
      <use xlink:href="#DejaVuSans-66"/>
     </g>
    </g>
   </g>
   <g id="text_4">
    <g clip-path="url(#p40647d9562)">
     <!-- D -->
     <defs>
      <path d="M 19.671875 64.796875 
L 19.671875 8.109375 
L 31.59375 8.109375 
Q 46.6875 8.109375 53.6875 14.9375 
Q 60.6875 21.78125 60.6875 36.53125 
Q 60.6875 51.171875 53.6875 57.984375 
Q 46.6875 64.796875 31.59375 64.796875 
z
M 9.8125 72.90625 
L 30.078125 72.90625 
Q 51.265625 72.90625 61.171875 64.09375 
Q 71.09375 55.28125 71.09375 36.53125 
Q 71.09375 17.671875 61.125 8.828125 
Q 51.171875 0 30.078125 0 
L 9.8125 0 
z
" id="DejaVuSans-68"/>
     </defs>
     <g transform="translate(33.056777 177.766889)scale(0.18 -0.18)">
      <use xlink:href="#DejaVuSans-68"/>
     </g>
    </g>
   </g>
   <g id="text_5">
    <g clip-path="url(#p40647d9562)">
     <!-- F -->
     <defs>
      <path d="M 9.8125 72.90625 
L 51.703125 72.90625 
L 51.703125 64.59375 
L 19.671875 64.59375 
L 19.671875 43.109375 
L 48.578125 43.109375 
L 48.578125 34.8125 
L 19.671875 34.8125 
L 19.671875 0 
L 9.8125 0 
z
" id="DejaVuSans-70"/>
     </defs>
     <g transform="translate(130.016999 320.576792)scale(0.18 -0.18)">
      <use xlink:href="#DejaVuSans-70"/>
     </g>
    </g>
   </g>
   <g id="text_6">
    <g clip-path="url(#p40647d9562)">
     <!-- E -->
     <defs>
      <path d="M 9.8125 72.90625 
L 55.90625 72.90625 
L 55.90625 64.59375 
L 19.671875 64.59375 
L 19.671875 43.015625 
L 54.390625 43.015625 
L 54.390625 34.71875 
L 19.671875 34.71875 
L 19.671875 8.296875 
L 56.78125 8.296875 
L 56.78125 0 
L 9.8125 0 
z
" id="DejaVuSans-69"/>
     </defs>
     <g transform="translate(319.91972 320.576792)scale(0.18 -0.18)">
      <use xlink:href="#DejaVuSans-69"/>
     </g>
    </g>
   </g>
  </g>
 </g>
 <defs>
  <clipPath id="p40647d9562">
   <rect height="345.6" width="460.8" x="0" y="0"/>
  </clipPath>
 </defs>
</svg>
