<?xml version="1.0" encoding="UTF-8" standalone="no"?>
<!-- Created with matplotlib (https://matplotlib.org/) -->

<svg
   xmlns:dc="http://purl.org/dc/elements/1.1/"
   xmlns:cc="http://creativecommons.org/ns#"
   xmlns:rdf="http://www.w3.org/1999/02/22-rdf-syntax-ns#"
   xmlns:svg="http://www.w3.org/2000/svg"
   xmlns="http://www.w3.org/2000/svg"
   xmlns:xlink="http://www.w3.org/1999/xlink"
   xmlns:sodipodi="http://sodipodi.sourceforge.net/DTD/sodipodi-0.dtd"
   xmlns:inkscape="http://www.inkscape.org/namespaces/inkscape"
   height="375pt"
   version="1.1"
   viewBox="0 0 600 375"
   width="600pt"
   id="svg335"
   sodipodi:docname="cluster_660_A.svg"
   inkscape:version="0.92.1 r15371">
  <metadata
     id="metadata339">
    <rdf:RDF>
      <cc:Work
         rdf:about="">
        <dc:format>image/svg+xml</dc:format>
        <dc:type
           rdf:resource="http://purl.org/dc/dcmitype/StillImage" />
        <dc:title />
      </cc:Work>
    </rdf:RDF>
  </metadata>
  <sodipodi:namedview
     pagecolor="#ffffff"
     bordercolor="#666666"
     borderopacity="1"
     objecttolerance="10"
     gridtolerance="10"
     guidetolerance="10"
     inkscape:pageopacity="0"
     inkscape:pageshadow="2"
     inkscape:window-width="1380"
     inkscape:window-height="800"
     id="namedview337"
     showgrid="false"
     fit-margin-top="0"
     fit-margin-left="0"
     fit-margin-right="0"
     fit-margin-bottom="0"
     inkscape:zoom="0.98333334"
     inkscape:cx="428.99312"
     inkscape:cy="236.69022"
     inkscape:window-x="2039"
     inkscape:window-y="158"
     inkscape:window-maximized="0"
     inkscape:current-layer="svg335" />
  <defs
     id="defs4"
     style="stroke-linecap:butt;stroke-linejoin:round">
    <style
       type="text/css"
       id="style2">
*{stroke-linecap:butt;stroke-linejoin:round;}
  </style>
    <clipPath
       clipPathUnits="userSpaceOnUse"
       id="clipPath4013"
       style="stroke-linecap:butt;stroke-linejoin:round">
      <rect
         style="opacity:0.43000004;fill:#999999;stroke-width:0.75;stroke-linecap:butt;stroke-linejoin:round"
         id="rect4015"
         width="600"
         height="375"
         x="57.966103"
         y="166.27119" />
    </clipPath>
  </defs>
  <g
     id="LineCollection_1"
     style="stroke-linecap:butt;stroke-linejoin:round"
     transform="translate(-57.966103,-166.27119)">
    <path
       clip-path="url(#pc3504137d0)"
       d="m 384.06694,252.80427 2e-5,214.39146"
       style="fill:none;stroke:#000000;stroke-width:2;stroke-linecap:butt;stroke-linejoin:round"
       id="path9"
       inkscape:connector-curvature="0" />
    <path
       clip-path="url(#pc3504137d0)"
       d="m 258.05079,293.7494 2e-5,132.50122"
       style="fill:none;stroke:#000000;stroke-width:2;stroke-linecap:butt;stroke-linejoin:round"
       id="path11"
       inkscape:connector-curvature="0" />
  </g>
  <g
     id="text_1"
     style="stroke-linecap:butt;stroke-linejoin:round"
     transform="matrix(1.4329214,0,0,1.4329214,-225.12673,-336.36197)">
    <g
       id="patch_2"
       style="stroke-linecap:butt;stroke-linejoin:round">
      <path
         clip-path="url(#pc3504137d0)"
         d="m 376.22789,373.48759 v 15.90312 q 0,3 3,3 h 9.67813 q 3,0 3,-3 v -15.90313 q 0,-3 -3,-3 l -9.67813,1e-5 q -3,0 -3,3 z"
         style="fill:#ffffff;stroke:#ffffff;stroke-linecap:butt;stroke-linejoin:miter"
         id="path14"
         inkscape:connector-curvature="0" />
    </g>
    <g
       clip-path="url(#pc3504137d0)"
       id="g30"
       style="stroke-linecap:butt;stroke-linejoin:round">
      <!-- 1.0 -->
      <defs
         id="defs20">
        <path
           d="m 12.40625,8.296875 h 16.109375 v 55.625 L 10.984375,60.40625 v 8.984375 l 17.4375,3.515625 H 38.28125 V 8.296875 H 54.390625 V 0 H 12.40625 Z"
           id="DejaVuSans-49"
           inkscape:connector-curvature="0"
           style="stroke-linecap:butt;stroke-linejoin:round" />
        <path
           d="M 10.6875,12.40625 H 21 V 0 H 10.6875 Z"
           id="DejaVuSans-46"
           inkscape:connector-curvature="0"
           style="stroke-linecap:butt;stroke-linejoin:round" />
        <path
           d="m 31.78125,66.40625 q -7.609375,0 -11.453125,-7.5 Q 16.5,51.421875 16.5,36.375 q 0,-14.984375 3.828125,-22.484375 3.84375,-7.5 11.453125,-7.5 7.671875,0 11.5,7.5 3.84375,7.5 3.84375,22.484375 0,15.046875 -3.84375,22.53125 -3.828125,7.5 -11.5,7.5 z m 0,7.8125 q 12.265625,0 18.734375,-9.703125 6.46875,-9.6875 6.46875,-28.140625 0,-18.40625 -6.46875,-28.109375 -6.46875,-9.6875 -18.734375,-9.6875 -12.25,0 -18.71875,9.6875 Q 6.59375,17.96875 6.59375,36.375 q 0,18.453125 6.46875,28.140625 6.46875,9.703125 18.71875,9.703125 z"
           id="DejaVuSans-48"
           inkscape:connector-curvature="0"
           style="stroke-linecap:butt;stroke-linejoin:round" />
      </defs>
      <g
         transform="matrix(0,0.1,0.1,0,381.30758,373.48759)"
         id="g28"
         style="stroke-linecap:butt;stroke-linejoin:round">
        <use
           xlink:href="#DejaVuSans-49"
           id="use22"
           style="stroke-linecap:butt;stroke-linejoin:round"
           x="0"
           y="0"
           width="100%"
           height="100%" />
        <use
           x="63.623047"
           xlink:href="#DejaVuSans-46"
           id="use24"
           style="stroke-linecap:butt;stroke-linejoin:round"
           y="0"
           width="100%"
           height="100%" />
        <use
           x="95.410156"
           xlink:href="#DejaVuSans-48"
           id="use26"
           style="stroke-linecap:butt;stroke-linejoin:round"
           y="0"
           width="100%"
           height="100%" />
      </g>
    </g>
  </g>
  <g
     id="text_2"
     style="stroke-linecap:butt;stroke-linejoin:round"
     transform="matrix(1.2286564,0,0,1.2286564,-118.0643,-254.23571)">
    <g
       id="patch_3"
       style="stroke-linecap:butt;stroke-linejoin:round">
      <path
         clip-path="url(#pc3504137d0)"
         d="m 250.21174,365.29857 v 15.90313 q 0,3 3,3 h 9.67812 q 3,0 3,-3 v -15.90313 q 0,-3 -3,-3 h -9.67812 q -3,0 -3,3 z"
         style="fill:#ffffff;stroke:#ffffff;stroke-linecap:butt;stroke-linejoin:miter"
         id="path33"
         inkscape:connector-curvature="0" />
    </g>
    <g
       clip-path="url(#pc3504137d0)"
       id="g44"
       style="stroke-linecap:butt;stroke-linejoin:round">
      <!-- 1.0 -->
      <g
         transform="matrix(1.0471975e-8,0.1,0.1,-1.0471975e-8,255.29143,365.29857)"
         id="g42"
         style="stroke-linecap:butt;stroke-linejoin:round">
        <use
           xlink:href="#DejaVuSans-49"
           id="use36"
           style="stroke-linecap:butt;stroke-linejoin:round"
           x="0"
           y="0"
           width="100%"
           height="100%" />
        <use
           x="63.623047"
           xlink:href="#DejaVuSans-46"
           id="use38"
           style="stroke-linecap:butt;stroke-linejoin:round"
           y="0"
           width="100%"
           height="100%" />
        <use
           x="95.410156"
           xlink:href="#DejaVuSans-48"
           id="use40"
           style="stroke-linecap:butt;stroke-linejoin:round"
           y="0"
           width="100%"
           height="100%" />
      </g>
    </g>
  </g>
  <g
     id="PathCollection_1"
     style="stroke-linecap:butt;stroke-linejoin:round"
     transform="translate(-57.966103,-166.27119)">
    <defs
       id="defs48">
      <path
         d="m 0,11.18034 c 2.965061,0 5.80908,-1.178031 7.905694,-3.274646 C 10.002309,5.80908 11.18034,2.965061 11.18034,0 c 0,-2.965061 -1.178031,-5.80908 -3.274646,-7.905694 C 5.80908,-10.002309 2.965061,-11.18034 0,-11.18034 c -2.965061,0 -5.80908,1.178031 -7.905694,3.274646 C -10.002309,-5.80908 -11.18034,-2.965061 -11.18034,0 c 0,2.965061 1.178031,5.80908 3.274646,7.905694 C -5.80908,10.002309 -2.965061,11.18034 0,11.18034 Z"
         id="m2ce82e71df"
         style="stroke:#1f78b4;stroke-linecap:butt;stroke-linejoin:round"
         inkscape:connector-curvature="0" />
    </defs>
    <g
       clip-path="url(#pc3504137d0)"
       id="g60"
       style="stroke-linecap:butt;stroke-linejoin:round">
      <use
         style="fill:#1f78b4;stroke:#1f78b4;stroke-linecap:butt;stroke-linejoin:round"
         x="461.94922"
         xlink:href="#m2ce82e71df"
         y="360"
         id="use50"
         width="100%"
         height="100%" />
      <use
         style="fill:#1f78b4;stroke:#1f78b4;stroke-linecap:butt;stroke-linejoin:round"
         x="384.06696"
         xlink:href="#m2ce82e71df"
         y="252.80426"
         id="use52"
         width="100%"
         height="100%" />
      <use
         style="fill:#1f78b4;stroke:#1f78b4;stroke-linecap:butt;stroke-linejoin:round"
         x="258.05078"
         xlink:href="#m2ce82e71df"
         y="293.74939"
         id="use54"
         width="100%"
         height="100%" />
      <use
         style="fill:#1f78b4;stroke:#1f78b4;stroke-linecap:butt;stroke-linejoin:round"
         x="258.05081"
         xlink:href="#m2ce82e71df"
         y="426.25061"
         id="use56"
         width="100%"
         height="100%" />
      <use
         style="fill:#1f78b4;stroke:#1f78b4;stroke-linecap:butt;stroke-linejoin:round"
         x="384.06696"
         xlink:href="#m2ce82e71df"
         y="467.19574"
         id="use58"
         width="100%"
         height="100%" />
    </g>
  </g>
  <g
     id="text_3"
     style="stroke-linecap:butt;stroke-linejoin:round"
     transform="matrix(1.0864355,0,0,1.0864355,-97.686765,-196.39517)">
    <!-- F25D7.5.1_TRINITY_16 -->
    <defs
       id="defs75">
      <path
         d="m 9.8125,72.90625 h 41.890625 v -8.3125 H 19.671875 V 43.109375 h 28.90625 V 34.8125 H 19.671875 V 0 H 9.8125 Z"
         id="DejaVuSans-70"
         inkscape:connector-curvature="0"
         style="stroke-linecap:butt;stroke-linejoin:round" />
      <path
         d="M 19.1875,8.296875 H 53.609375 V 0 H 7.328125 v 8.296875 q 5.609375,5.8125 15.296875,15.59375 9.703125,9.796875 12.1875,12.640625 4.734375,5.3125 6.609375,9 1.890625,3.6875 1.890625,7.25 0,5.8125 -4.078125,9.46875 -4.078125,3.671875 -10.625,3.671875 -4.640625,0 -9.796875,-1.609375 -5.140625,-1.609375 -11,-4.890625 v 9.96875 Q 13.765625,71.78125 18.9375,73 q 5.1875,1.21875 9.484375,1.21875 11.328125,0 18.0625,-5.671875 6.734375,-5.65625 6.734375,-15.125 0,-4.5 -1.6875,-8.53125 Q 49.859375,40.875 45.40625,35.40625 44.1875,33.984375 37.640625,27.21875 31.109375,20.453125 19.1875,8.296875 Z"
         id="DejaVuSans-50"
         inkscape:connector-curvature="0"
         style="stroke-linecap:butt;stroke-linejoin:round" />
      <path
         d="m 10.796875,72.90625 h 38.71875 v -8.3125 h -29.6875 V 46.734375 q 2.140625,0.734375 4.28125,1.09375 2.15625,0.359375 4.3125,0.359375 Q 40.625,48.1875 47.75,41.5 54.890625,34.8125 54.890625,23.390625 54.890625,11.625 47.5625,5.09375 40.234375,-1.421875 26.90625,-1.421875 q -4.59375,0 -9.359375,0.78125 -4.75,0.78125 -9.828125,2.34375 V 11.625 q 4.390625,-2.390625 9.078125,-3.5625 4.6875,-1.171875 9.90625,-1.171875 8.453125,0 13.375,4.4375 4.9375,4.4375 4.9375,12.0625 0,7.609375 -4.9375,12.046875 -4.921875,4.453125 -13.375,4.453125 -3.953125,0 -7.890625,-0.875 -3.921875,-0.875 -8.015625,-2.734375 z"
         id="DejaVuSans-53"
         inkscape:connector-curvature="0"
         style="stroke-linecap:butt;stroke-linejoin:round" />
      <path
         d="M 19.671875,64.796875 V 8.109375 H 31.59375 q 15.09375,0 22.09375,6.828125 7,6.84375 7,21.59375 0,14.640625 -7,21.453125 -7,6.8125 -22.09375,6.8125 z M 9.8125,72.90625 h 20.265625 q 21.1875,0 31.09375,-8.8125 9.921875,-8.8125 9.921875,-27.5625 0,-18.859375 -9.96875,-27.703125 Q 51.171875,0 30.078125,0 H 9.8125 Z"
         id="DejaVuSans-68"
         inkscape:connector-curvature="0"
         style="stroke-linecap:butt;stroke-linejoin:round" />
      <path
         d="m 8.203125,72.90625 h 46.875 V 68.703125 L 28.609375,0 H 18.3125 L 43.21875,64.59375 H 8.203125 Z"
         id="DejaVuSans-55"
         inkscape:connector-curvature="0"
         style="stroke-linecap:butt;stroke-linejoin:round" />
      <path
         d="m 50.984375,-16.609375 v -6.96875 h -51.96875 v 6.96875 z"
         id="DejaVuSans-95"
         inkscape:connector-curvature="0"
         style="stroke-linecap:butt;stroke-linejoin:round" />
      <path
         d="M -0.296875,72.90625 H 61.375 v -8.3125 H 35.5 V 0 H 25.59375 V 64.59375 H -0.296875 Z"
         id="DejaVuSans-84"
         inkscape:connector-curvature="0"
         style="stroke-linecap:butt;stroke-linejoin:round" />
      <path
         d="m 44.390625,34.1875 q 3.171875,-1.078125 6.171875,-4.59375 3,-3.515625 6.03125,-9.671875 L 66.609375,0 H 56 l -9.3125,18.703125 q -3.625,7.328125 -7.015625,9.71875 -3.390625,2.390625 -9.25,2.390625 h -10.75 V 0 H 9.8125 v 72.90625 h 22.265625 q 12.5,0 18.65625,-5.234375 6.15625,-5.21875 6.15625,-15.765625 0,-6.890625 -3.203125,-11.4375 -3.203125,-4.53125 -9.296875,-6.28125 z m -24.71875,30.609375 v -25.875 h 12.40625 q 7.125,0 10.765625,3.296875 3.640625,3.296875 3.640625,9.6875 0,6.390625 -3.640625,9.640625 -3.640625,3.25 -10.765625,3.25 z"
         id="DejaVuSans-82"
         inkscape:connector-curvature="0"
         style="stroke-linecap:butt;stroke-linejoin:round" />
      <path
         d="m 9.8125,72.90625 h 9.859375 V 0 H 9.8125 Z"
         id="DejaVuSans-73"
         inkscape:connector-curvature="0"
         style="stroke-linecap:butt;stroke-linejoin:round" />
      <path
         d="M 9.8125,72.90625 H 23.09375 L 55.421875,11.921875 V 72.90625 h 9.5625 V 0 h -13.28125 l -32.3125,60.984375 V 0 H 9.8125 Z"
         id="DejaVuSans-78"
         inkscape:connector-curvature="0"
         style="stroke-linecap:butt;stroke-linejoin:round" />
      <path
         d="M -0.203125,72.90625 H 10.40625 L 30.609375,42.921875 50.6875,72.90625 H 61.28125 L 35.5,34.71875 V 0 h -9.90625 v 34.71875 z"
         id="DejaVuSans-89"
         inkscape:connector-curvature="0"
         style="stroke-linecap:butt;stroke-linejoin:round" />
      <path
         d="m 33.015625,40.375 q -6.640625,0 -10.53125,-4.546875 -3.875,-4.53125 -3.875,-12.4375 0,-7.859375 3.875,-12.4375 3.890625,-4.5625 10.53125,-4.5625 6.640625,0 10.515625,4.5625 3.875,4.578125 3.875,12.4375 0,7.90625 -3.875,12.4375 Q 39.65625,40.375 33.015625,40.375 Z M 52.59375,71.296875 V 62.3125 q -3.71875,1.75 -7.5,2.671875 -3.78125,0.9375 -7.5,0.9375 -9.765625,0 -14.921875,-6.59375 -5.140625,-6.59375 -5.875,-19.921875 2.875,4.25 7.21875,6.515625 4.359375,2.265625 9.578125,2.265625 10.984375,0 17.359375,-6.671875 6.375,-6.65625 6.375,-18.125 0,-11.234375 -6.640625,-18.03125 -6.640625,-6.78125 -17.671875,-6.78125 -12.65625,0 -19.34375,9.6875 -6.6875,9.703125 -6.6875,28.109375 0,17.28125 8.203125,27.5625 8.203125,10.28125 22.015625,10.28125 3.71875,0 7.5,-0.734375 3.78125,-0.734375 7.890625,-2.1875 z"
         id="DejaVuSans-54"
         inkscape:connector-curvature="0"
         style="stroke-linecap:butt;stroke-linejoin:round" />
    </defs>
    <g
       transform="matrix(0.12,0,0,-0.12,475.71737,363.03844)"
       id="g117"
       style="stroke-linecap:butt;stroke-linejoin:round">
      <use
         xlink:href="#DejaVuSans-70"
         id="use77"
         style="stroke-linecap:butt;stroke-linejoin:round"
         x="0"
         y="0"
         width="100%"
         height="100%" />
      <use
         x="57.519531"
         xlink:href="#DejaVuSans-50"
         id="use79"
         style="stroke-linecap:butt;stroke-linejoin:round"
         y="0"
         width="100%"
         height="100%" />
      <use
         x="121.14258"
         xlink:href="#DejaVuSans-53"
         id="use81"
         style="stroke-linecap:butt;stroke-linejoin:round"
         y="0"
         width="100%"
         height="100%" />
      <use
         x="184.76562"
         xlink:href="#DejaVuSans-68"
         id="use83"
         style="stroke-linecap:butt;stroke-linejoin:round"
         y="0"
         width="100%"
         height="100%" />
      <use
         x="261.76758"
         xlink:href="#DejaVuSans-55"
         id="use85"
         style="stroke-linecap:butt;stroke-linejoin:round"
         y="0"
         width="100%"
         height="100%" />
      <use
         x="325.39062"
         xlink:href="#DejaVuSans-46"
         id="use87"
         style="stroke-linecap:butt;stroke-linejoin:round"
         y="0"
         width="100%"
         height="100%" />
      <use
         x="357.17773"
         xlink:href="#DejaVuSans-53"
         id="use89"
         style="stroke-linecap:butt;stroke-linejoin:round"
         y="0"
         width="100%"
         height="100%" />
      <use
         x="420.80078"
         xlink:href="#DejaVuSans-46"
         id="use91"
         style="stroke-linecap:butt;stroke-linejoin:round"
         y="0"
         width="100%"
         height="100%" />
      <use
         x="452.58789"
         xlink:href="#DejaVuSans-49"
         id="use93"
         style="stroke-linecap:butt;stroke-linejoin:round"
         y="0"
         width="100%"
         height="100%" />
      <use
         x="516.21094"
         xlink:href="#DejaVuSans-95"
         id="use95"
         style="stroke-linecap:butt;stroke-linejoin:round"
         y="0"
         width="100%"
         height="100%" />
      <use
         x="566.21094"
         xlink:href="#DejaVuSans-84"
         id="use97"
         style="stroke-linecap:butt;stroke-linejoin:round"
         y="0"
         width="100%"
         height="100%" />
      <use
         x="627.29492"
         xlink:href="#DejaVuSans-82"
         id="use99"
         style="stroke-linecap:butt;stroke-linejoin:round"
         y="0"
         width="100%"
         height="100%" />
      <use
         x="696.77734"
         xlink:href="#DejaVuSans-73"
         id="use101"
         style="stroke-linecap:butt;stroke-linejoin:round"
         y="0"
         width="100%"
         height="100%" />
      <use
         x="726.26953"
         xlink:href="#DejaVuSans-78"
         id="use103"
         style="stroke-linecap:butt;stroke-linejoin:round"
         y="0"
         width="100%"
         height="100%" />
      <use
         x="801.07422"
         xlink:href="#DejaVuSans-73"
         id="use105"
         style="stroke-linecap:butt;stroke-linejoin:round"
         y="0"
         width="100%"
         height="100%" />
      <use
         x="830.56641"
         xlink:href="#DejaVuSans-84"
         id="use107"
         style="stroke-linecap:butt;stroke-linejoin:round"
         y="0"
         width="100%"
         height="100%" />
      <use
         x="891.65039"
         xlink:href="#DejaVuSans-89"
         id="use109"
         style="stroke-linecap:butt;stroke-linejoin:round"
         y="0"
         width="100%"
         height="100%" />
      <use
         x="952.73438"
         xlink:href="#DejaVuSans-95"
         id="use111"
         style="stroke-linecap:butt;stroke-linejoin:round"
         y="0"
         width="100%"
         height="100%" />
      <use
         x="1002.7344"
         xlink:href="#DejaVuSans-49"
         id="use113"
         style="stroke-linecap:butt;stroke-linejoin:round"
         y="0"
         width="100%"
         height="100%" />
      <use
         x="1066.3574"
         xlink:href="#DejaVuSans-54"
         id="use115"
         style="stroke-linecap:butt;stroke-linejoin:round"
         y="0"
         width="100%"
         height="100%" />
    </g>
  </g>
  <g
     id="text_4"
     style="stroke-linecap:butt;stroke-linejoin:round"
     transform="matrix(1.0864355,0,0,1.0864355,-123.09839,-185.9047)">
    <!-- T19B4.7.1_SOAPDENOVOTRANS_12 -->
    <defs
       id="defs129">
      <path
         d="M 10.984375,1.515625 V 10.5 Q 14.703125,8.734375 18.5,7.8125 q 3.8125,-0.921875 7.484375,-0.921875 9.765625,0 14.90625,6.5625 5.15625,6.5625 5.890625,19.953125 -2.828125,-4.203125 -7.1875,-6.453125 -4.34375,-2.25 -9.609375,-2.25 -10.9375,0 -17.3125,6.609375 -6.375,6.625 -6.375,18.109375 0,11.21875 6.640625,18 6.640625,6.796875 17.671875,6.796875 12.65625,0 19.3125,-9.703125 6.671875,-9.6875 6.671875,-28.140625 0,-17.234375 -8.1875,-27.515625 -8.171875,-10.28125 -21.984375,-10.28125 -3.71875,0 -7.53125,0.734375 -3.796875,0.734375 -7.90625,2.203125 z m 19.625,30.90625 q 6.640625,0 10.515625,4.53125 3.890625,4.546875 3.890625,12.46875 0,7.859375 -3.890625,12.421875 -3.875,4.5625 -10.515625,4.5625 -6.640625,0 -10.515625,-4.5625 -3.875,-4.5625 -3.875,-12.421875 0,-7.921875 3.875,-12.46875 3.875,-4.53125 10.515625,-4.53125 z"
         id="DejaVuSans-57"
         inkscape:connector-curvature="0"
         style="stroke-linecap:butt;stroke-linejoin:round" />
      <path
         d="M 19.671875,34.8125 V 8.109375 H 35.5 q 7.953125,0 11.78125,3.296875 3.84375,3.296875 3.84375,10.078125 0,6.84375 -3.84375,10.078125 -3.828125,3.25 -11.78125,3.25 z m 0,29.984375 V 42.828125 H 34.28125 q 7.21875,0 10.75,2.703125 3.546875,2.71875 3.546875,8.28125 0,5.515625 -3.546875,8.25 -3.53125,2.734375 -10.75,2.734375 z M 9.8125,72.90625 h 25.203125 q 11.28125,0 17.375,-4.6875 Q 58.5,63.53125 58.5,54.890625 58.5,48.1875 55.375,44.234375 52.25,40.28125 46.1875,39.3125 53.46875,37.75 57.5,32.78125 q 4.03125,-4.953125 4.03125,-12.375 0,-9.765625 -6.640625,-15.09375 Q 48.25,0 35.984375,0 H 9.8125 Z"
         id="DejaVuSans-66"
         inkscape:connector-curvature="0"
         style="stroke-linecap:butt;stroke-linejoin:round" />
      <path
         d="M 37.796875,64.3125 12.890625,25.390625 h 24.90625 z m -2.59375,8.59375 h 12.40625 V 25.390625 h 10.40625 V 17.1875 H 47.609375 V 0 h -9.8125 V 17.1875 H 4.890625 v 9.515625 z"
         id="DejaVuSans-52"
         inkscape:connector-curvature="0"
         style="stroke-linecap:butt;stroke-linejoin:round" />
      <path
         d="m 53.515625,70.515625 v -9.625 q -5.609375,2.6875 -10.59375,4 -4.984375,1.328125 -9.625,1.328125 -8.046875,0 -12.421875,-3.125 -4.375,-3.125 -4.375,-8.890625 0,-4.84375 2.90625,-7.3125 2.90625,-2.453125 11.015625,-3.96875 L 36.375,41.703125 Q 47.40625,39.59375 52.65625,34.296875 57.90625,29 57.90625,20.125 q 0,-10.609375 -7.109375,-16.078125 -7.09375,-5.46875 -20.8125,-5.46875 -5.171875,0 -11.015625,1.171875 Q 13.140625,0.921875 6.890625,3.21875 V 13.375 q 6,-3.359375 11.765625,-5.078125 5.765625,-1.703125 11.328125,-1.703125 8.4375,0 13.03125,3.3125 4.59375,3.328125 4.59375,9.484375 0,5.359375 -3.296875,8.390625 Q 41.015625,30.8125 33.5,32.328125 L 27.484375,33.5 q -11.03125,2.1875 -15.96875,6.875 -4.921875,4.6875 -4.921875,13.046875 0,9.671875 6.8125,15.234375 6.8125,5.5625 18.765625,5.5625 5.140625,0 10.453125,-0.9375 5.328125,-0.921875 10.890625,-2.765625 z"
         id="DejaVuSans-83"
         inkscape:connector-curvature="0"
         style="stroke-linecap:butt;stroke-linejoin:round" />
      <path
         d="m 39.40625,66.21875 q -10.75,0 -17.078125,-8.015625 -6.3125,-8 -6.3125,-21.828125 0,-13.765625 6.3125,-21.78125 6.328125,-8 17.078125,-8 10.734375,0 17.015625,8 6.28125,8.015625 6.28125,21.78125 0,13.828125 -6.28125,21.828125 -6.28125,8.015625 -17.015625,8.015625 z m 0,8 q 15.328125,0 24.5,-10.28125 9.1875,-10.28125 9.1875,-27.5625 0,-17.234375 -9.1875,-27.515625 -9.171875,-10.28125 -24.5,-10.28125 -15.375,0 -24.59375,10.25 Q 5.609375,19.09375 5.609375,36.375 q 0,17.28125 9.203125,27.5625 9.21875,10.28125 24.59375,10.28125 z"
         id="DejaVuSans-79"
         inkscape:connector-curvature="0"
         style="stroke-linecap:butt;stroke-linejoin:round" />
      <path
         d="M 34.1875,63.1875 20.796875,26.90625 h 26.8125 z m -5.578125,9.71875 h 11.1875 L 67.578125,0 h -10.25 L 50.6875,18.703125 H 17.828125 L 11.1875,0 H 0.78125 Z"
         id="DejaVuSans-65"
         inkscape:connector-curvature="0"
         style="stroke-linecap:butt;stroke-linejoin:round" />
      <path
         d="M 19.671875,64.796875 V 37.40625 h 12.40625 q 6.890625,0 10.640625,3.5625 3.765625,3.5625 3.765625,10.15625 0,6.546875 -3.765625,10.109375 -3.75,3.5625 -10.640625,3.5625 z M 9.8125,72.90625 h 22.265625 q 12.265625,0 18.53125,-5.546875 6.28125,-5.546875 6.28125,-16.234375 0,-10.796875 -6.28125,-16.3125 -6.265625,-5.515625 -18.53125,-5.515625 H 19.671875 V 0 H 9.8125 Z"
         id="DejaVuSans-80"
         inkscape:connector-curvature="0"
         style="stroke-linecap:butt;stroke-linejoin:round" />
      <path
         d="m 9.8125,72.90625 h 46.09375 v -8.3125 H 19.671875 V 43.015625 h 34.71875 V 34.71875 H 19.671875 V 8.296875 H 56.78125 V 0 H 9.8125 Z"
         id="DejaVuSans-69"
         inkscape:connector-curvature="0"
         style="stroke-linecap:butt;stroke-linejoin:round" />
      <path
         d="M 28.609375,0 0.78125,72.90625 h 10.296875 l 23.109375,-61.375 23.140625,61.375 h 10.25 L 39.796875,0 Z"
         id="DejaVuSans-86"
         inkscape:connector-curvature="0"
         style="stroke-linecap:butt;stroke-linejoin:round" />
    </defs>
    <g
       transform="matrix(0.12,0,0,-0.12,356.48916,224.31696)"
       id="g187"
       style="stroke-linecap:butt;stroke-linejoin:round">
      <use
         xlink:href="#DejaVuSans-84"
         id="use131"
         style="stroke-linecap:butt;stroke-linejoin:round"
         x="0"
         y="0"
         width="100%"
         height="100%" />
      <use
         x="61.083984"
         xlink:href="#DejaVuSans-49"
         id="use133"
         style="stroke-linecap:butt;stroke-linejoin:round"
         y="0"
         width="100%"
         height="100%" />
      <use
         x="124.70703"
         xlink:href="#DejaVuSans-57"
         id="use135"
         style="stroke-linecap:butt;stroke-linejoin:round"
         y="0"
         width="100%"
         height="100%" />
      <use
         x="188.33008"
         xlink:href="#DejaVuSans-66"
         id="use137"
         style="stroke-linecap:butt;stroke-linejoin:round"
         y="0"
         width="100%"
         height="100%" />
      <use
         x="256.93359"
         xlink:href="#DejaVuSans-52"
         id="use139"
         style="stroke-linecap:butt;stroke-linejoin:round"
         y="0"
         width="100%"
         height="100%" />
      <use
         x="320.55664"
         xlink:href="#DejaVuSans-46"
         id="use141"
         style="stroke-linecap:butt;stroke-linejoin:round"
         y="0"
         width="100%"
         height="100%" />
      <use
         x="352.34375"
         xlink:href="#DejaVuSans-55"
         id="use143"
         style="stroke-linecap:butt;stroke-linejoin:round"
         y="0"
         width="100%"
         height="100%" />
      <use
         x="415.9668"
         xlink:href="#DejaVuSans-46"
         id="use145"
         style="stroke-linecap:butt;stroke-linejoin:round"
         y="0"
         width="100%"
         height="100%" />
      <use
         x="447.75391"
         xlink:href="#DejaVuSans-49"
         id="use147"
         style="stroke-linecap:butt;stroke-linejoin:round"
         y="0"
         width="100%"
         height="100%" />
      <use
         x="511.37695"
         xlink:href="#DejaVuSans-95"
         id="use149"
         style="stroke-linecap:butt;stroke-linejoin:round"
         y="0"
         width="100%"
         height="100%" />
      <use
         x="561.37695"
         xlink:href="#DejaVuSans-83"
         id="use151"
         style="stroke-linecap:butt;stroke-linejoin:round"
         y="0"
         width="100%"
         height="100%" />
      <use
         x="624.85352"
         xlink:href="#DejaVuSans-79"
         id="use153"
         style="stroke-linecap:butt;stroke-linejoin:round"
         y="0"
         width="100%"
         height="100%" />
      <use
         x="703.54883"
         xlink:href="#DejaVuSans-65"
         id="use155"
         style="stroke-linecap:butt;stroke-linejoin:round"
         y="0"
         width="100%"
         height="100%" />
      <use
         x="771.95703"
         xlink:href="#DejaVuSans-80"
         id="use157"
         style="stroke-linecap:butt;stroke-linejoin:round"
         y="0"
         width="100%"
         height="100%" />
      <use
         x="832.25977"
         xlink:href="#DejaVuSans-68"
         id="use159"
         style="stroke-linecap:butt;stroke-linejoin:round"
         y="0"
         width="100%"
         height="100%" />
      <use
         x="909.26172"
         xlink:href="#DejaVuSans-69"
         id="use161"
         style="stroke-linecap:butt;stroke-linejoin:round"
         y="0"
         width="100%"
         height="100%" />
      <use
         x="972.44531"
         xlink:href="#DejaVuSans-78"
         id="use163"
         style="stroke-linecap:butt;stroke-linejoin:round"
         y="0"
         width="100%"
         height="100%" />
      <use
         x="1047.25"
         xlink:href="#DejaVuSans-79"
         id="use165"
         style="stroke-linecap:butt;stroke-linejoin:round"
         y="0"
         width="100%"
         height="100%" />
      <use
         x="1125.9453"
         xlink:href="#DejaVuSans-86"
         id="use167"
         style="stroke-linecap:butt;stroke-linejoin:round"
         y="0"
         width="100%"
         height="100%" />
      <use
         x="1194.3379"
         xlink:href="#DejaVuSans-79"
         id="use169"
         style="stroke-linecap:butt;stroke-linejoin:round"
         y="0"
         width="100%"
         height="100%" />
      <use
         x="1273.0488"
         xlink:href="#DejaVuSans-84"
         id="use171"
         style="stroke-linecap:butt;stroke-linejoin:round"
         y="0"
         width="100%"
         height="100%" />
      <use
         x="1334.1328"
         xlink:href="#DejaVuSans-82"
         id="use173"
         style="stroke-linecap:butt;stroke-linejoin:round"
         y="0"
         width="100%"
         height="100%" />
      <use
         x="1403.5527"
         xlink:href="#DejaVuSans-65"
         id="use175"
         style="stroke-linecap:butt;stroke-linejoin:round"
         y="0"
         width="100%"
         height="100%" />
      <use
         x="1471.9609"
         xlink:href="#DejaVuSans-78"
         id="use177"
         style="stroke-linecap:butt;stroke-linejoin:round"
         y="0"
         width="100%"
         height="100%" />
      <use
         x="1546.7656"
         xlink:href="#DejaVuSans-83"
         id="use179"
         style="stroke-linecap:butt;stroke-linejoin:round"
         y="0"
         width="100%"
         height="100%" />
      <use
         x="1610.2422"
         xlink:href="#DejaVuSans-95"
         id="use181"
         style="stroke-linecap:butt;stroke-linejoin:round"
         y="0"
         width="100%"
         height="100%" />
      <use
         x="1660.2422"
         xlink:href="#DejaVuSans-49"
         id="use183"
         style="stroke-linecap:butt;stroke-linejoin:round"
         y="0"
         width="100%"
         height="100%" />
      <use
         x="1723.8652"
         xlink:href="#DejaVuSans-50"
         id="use185"
         style="stroke-linecap:butt;stroke-linejoin:round"
         y="0"
         width="100%"
         height="100%" />
    </g>
  </g>
  <g
     id="text_5"
     style="stroke-linecap:butt;stroke-linejoin:round"
     transform="translate(-57.966103,-166.27119)">
    <!-- T20F10.1.1_TRINITY_11 -->
    <g
       transform="matrix(0.13037226,0,0,-0.13037226,108.50216,277.05929)"
       id="g232"
       style="stroke-linecap:butt;stroke-linejoin:round">
      <use
         xlink:href="#DejaVuSans-84"
         id="use190"
         style="stroke-linecap:butt;stroke-linejoin:round"
         x="0"
         y="0"
         width="100%"
         height="100%" />
      <use
         x="61.083984"
         xlink:href="#DejaVuSans-50"
         id="use192"
         style="stroke-linecap:butt;stroke-linejoin:round"
         y="0"
         width="100%"
         height="100%" />
      <use
         x="124.70703"
         xlink:href="#DejaVuSans-48"
         id="use194"
         style="stroke-linecap:butt;stroke-linejoin:round"
         y="0"
         width="100%"
         height="100%" />
      <use
         x="188.33008"
         xlink:href="#DejaVuSans-70"
         id="use196"
         style="stroke-linecap:butt;stroke-linejoin:round"
         y="0"
         width="100%"
         height="100%" />
      <use
         x="245.84961"
         xlink:href="#DejaVuSans-49"
         id="use198"
         style="stroke-linecap:butt;stroke-linejoin:round"
         y="0"
         width="100%"
         height="100%" />
      <use
         x="309.47266"
         xlink:href="#DejaVuSans-48"
         id="use200"
         style="stroke-linecap:butt;stroke-linejoin:round"
         y="0"
         width="100%"
         height="100%" />
      <use
         x="373.0957"
         xlink:href="#DejaVuSans-46"
         id="use202"
         style="stroke-linecap:butt;stroke-linejoin:round"
         y="0"
         width="100%"
         height="100%" />
      <use
         x="404.88281"
         xlink:href="#DejaVuSans-49"
         id="use204"
         style="stroke-linecap:butt;stroke-linejoin:round"
         y="0"
         width="100%"
         height="100%" />
      <use
         x="468.50586"
         xlink:href="#DejaVuSans-46"
         id="use206"
         style="stroke-linecap:butt;stroke-linejoin:round"
         y="0"
         width="100%"
         height="100%" />
      <use
         x="500.29297"
         xlink:href="#DejaVuSans-49"
         id="use208"
         style="stroke-linecap:butt;stroke-linejoin:round"
         y="0"
         width="100%"
         height="100%" />
      <use
         x="563.91602"
         xlink:href="#DejaVuSans-95"
         id="use210"
         style="stroke-linecap:butt;stroke-linejoin:round"
         y="0"
         width="100%"
         height="100%" />
      <use
         x="613.91602"
         xlink:href="#DejaVuSans-84"
         id="use212"
         style="stroke-linecap:butt;stroke-linejoin:round"
         y="0"
         width="100%"
         height="100%" />
      <use
         x="675"
         xlink:href="#DejaVuSans-82"
         id="use214"
         style="stroke-linecap:butt;stroke-linejoin:round"
         y="0"
         width="100%"
         height="100%" />
      <use
         x="744.48242"
         xlink:href="#DejaVuSans-73"
         id="use216"
         style="stroke-linecap:butt;stroke-linejoin:round"
         y="0"
         width="100%"
         height="100%" />
      <use
         x="773.97461"
         xlink:href="#DejaVuSans-78"
         id="use218"
         style="stroke-linecap:butt;stroke-linejoin:round"
         y="0"
         width="100%"
         height="100%" />
      <use
         x="848.7793"
         xlink:href="#DejaVuSans-73"
         id="use220"
         style="stroke-linecap:butt;stroke-linejoin:round"
         y="0"
         width="100%"
         height="100%" />
      <use
         x="878.27148"
         xlink:href="#DejaVuSans-84"
         id="use222"
         style="stroke-linecap:butt;stroke-linejoin:round"
         y="0"
         width="100%"
         height="100%" />
      <use
         x="939.35547"
         xlink:href="#DejaVuSans-89"
         id="use224"
         style="stroke-linecap:butt;stroke-linejoin:round"
         y="0"
         width="100%"
         height="100%" />
      <use
         x="1000.4395"
         xlink:href="#DejaVuSans-95"
         id="use226"
         style="stroke-linecap:butt;stroke-linejoin:round"
         y="0"
         width="100%"
         height="100%" />
      <use
         x="1050.4395"
         xlink:href="#DejaVuSans-49"
         id="use228"
         style="stroke-linecap:butt;stroke-linejoin:round"
         y="0"
         width="100%"
         height="100%" />
      <use
         x="1114.0625"
         xlink:href="#DejaVuSans-49"
         id="use230"
         style="stroke-linecap:butt;stroke-linejoin:round"
         y="0"
         width="100%"
         height="100%" />
    </g>
  </g>
  <g
     id="text_6"
     style="stroke-linecap:butt;stroke-linejoin:round"
     transform="matrix(1.0864355,0,0,1.0864355,-66.305839,-205.30568)">
    <!-- T20F10.1.1_RNASPADES_3 -->
    <defs
       id="defs236">
      <path
         d="M 40.578125,39.3125 Q 47.65625,37.796875 51.625,33 q 3.984375,-4.78125 3.984375,-11.8125 0,-10.78125 -7.421875,-16.703125 -7.421875,-5.90625 -21.09375,-5.90625 -4.578125,0 -9.4375,0.90625 -4.859375,0.90625 -10.03125,2.71875 v 9.515625 q 4.09375,-2.390625 8.96875,-3.609375 4.890625,-1.21875 10.21875,-1.21875 9.265625,0 14.125,3.65625 4.859375,3.65625 4.859375,10.640625 0,6.453125 -4.515625,10.078125 -4.515625,3.640625 -12.5625,3.640625 h -8.5 v 8.109375 h 8.890625 q 7.265625,0 11.125,2.90625 3.859375,2.90625 3.859375,8.375 0,5.609375 -3.984375,8.609375 -3.96875,3.015625 -11.390625,3.015625 -4.0625,0 -8.703125,-0.890625 Q 15.375,64.15625 9.8125,62.3125 v 8.78125 q 5.625,1.5625 10.53125,2.34375 4.90625,0.78125 9.25,0.78125 11.234375,0 17.765625,-5.109375 6.546875,-5.09375 6.546875,-13.78125 0,-6.0625 -3.46875,-10.234375 -3.46875,-4.171875 -9.859375,-5.78125 z"
         id="DejaVuSans-51"
         inkscape:connector-curvature="0"
         style="stroke-linecap:butt;stroke-linejoin:round" />
    </defs>
    <g
       transform="matrix(0.12,0,0,-0.12,96.520665,448.77303)"
       id="g282"
       style="stroke-linecap:butt;stroke-linejoin:round">
      <use
         xlink:href="#DejaVuSans-84"
         id="use238"
         style="stroke-linecap:butt;stroke-linejoin:round"
         x="0"
         y="0"
         width="100%"
         height="100%" />
      <use
         x="61.083984"
         xlink:href="#DejaVuSans-50"
         id="use240"
         style="stroke-linecap:butt;stroke-linejoin:round"
         y="0"
         width="100%"
         height="100%" />
      <use
         x="124.70703"
         xlink:href="#DejaVuSans-48"
         id="use242"
         style="stroke-linecap:butt;stroke-linejoin:round"
         y="0"
         width="100%"
         height="100%" />
      <use
         x="188.33008"
         xlink:href="#DejaVuSans-70"
         id="use244"
         style="stroke-linecap:butt;stroke-linejoin:round"
         y="0"
         width="100%"
         height="100%" />
      <use
         x="245.84961"
         xlink:href="#DejaVuSans-49"
         id="use246"
         style="stroke-linecap:butt;stroke-linejoin:round"
         y="0"
         width="100%"
         height="100%" />
      <use
         x="309.47266"
         xlink:href="#DejaVuSans-48"
         id="use248"
         style="stroke-linecap:butt;stroke-linejoin:round"
         y="0"
         width="100%"
         height="100%" />
      <use
         x="373.0957"
         xlink:href="#DejaVuSans-46"
         id="use250"
         style="stroke-linecap:butt;stroke-linejoin:round"
         y="0"
         width="100%"
         height="100%" />
      <use
         x="404.88281"
         xlink:href="#DejaVuSans-49"
         id="use252"
         style="stroke-linecap:butt;stroke-linejoin:round"
         y="0"
         width="100%"
         height="100%" />
      <use
         x="468.50586"
         xlink:href="#DejaVuSans-46"
         id="use254"
         style="stroke-linecap:butt;stroke-linejoin:round"
         y="0"
         width="100%"
         height="100%" />
      <use
         x="500.29297"
         xlink:href="#DejaVuSans-49"
         id="use256"
         style="stroke-linecap:butt;stroke-linejoin:round"
         y="0"
         width="100%"
         height="100%" />
      <use
         x="563.91602"
         xlink:href="#DejaVuSans-95"
         id="use258"
         style="stroke-linecap:butt;stroke-linejoin:round"
         y="0"
         width="100%"
         height="100%" />
      <use
         x="613.91602"
         xlink:href="#DejaVuSans-82"
         id="use260"
         style="stroke-linecap:butt;stroke-linejoin:round"
         y="0"
         width="100%"
         height="100%" />
      <use
         x="683.39844"
         xlink:href="#DejaVuSans-78"
         id="use262"
         style="stroke-linecap:butt;stroke-linejoin:round"
         y="0"
         width="100%"
         height="100%" />
      <use
         x="758.20312"
         xlink:href="#DejaVuSans-65"
         id="use264"
         style="stroke-linecap:butt;stroke-linejoin:round"
         y="0"
         width="100%"
         height="100%" />
      <use
         x="826.61133"
         xlink:href="#DejaVuSans-83"
         id="use266"
         style="stroke-linecap:butt;stroke-linejoin:round"
         y="0"
         width="100%"
         height="100%" />
      <use
         x="890.08789"
         xlink:href="#DejaVuSans-80"
         id="use268"
         style="stroke-linecap:butt;stroke-linejoin:round"
         y="0"
         width="100%"
         height="100%" />
      <use
         x="950.29688"
         xlink:href="#DejaVuSans-65"
         id="use270"
         style="stroke-linecap:butt;stroke-linejoin:round"
         y="0"
         width="100%"
         height="100%" />
      <use
         x="1018.7051"
         xlink:href="#DejaVuSans-68"
         id="use272"
         style="stroke-linecap:butt;stroke-linejoin:round"
         y="0"
         width="100%"
         height="100%" />
      <use
         x="1095.707"
         xlink:href="#DejaVuSans-69"
         id="use274"
         style="stroke-linecap:butt;stroke-linejoin:round"
         y="0"
         width="100%"
         height="100%" />
      <use
         x="1158.8906"
         xlink:href="#DejaVuSans-83"
         id="use276"
         style="stroke-linecap:butt;stroke-linejoin:round"
         y="0"
         width="100%"
         height="100%" />
      <use
         x="1222.3672"
         xlink:href="#DejaVuSans-95"
         id="use278"
         style="stroke-linecap:butt;stroke-linejoin:round"
         y="0"
         width="100%"
         height="100%" />
      <use
         x="1272.3672"
         xlink:href="#DejaVuSans-51"
         id="use280"
         style="stroke-linecap:butt;stroke-linejoin:round"
         y="0"
         width="100%"
         height="100%" />
    </g>
  </g>
  <g
     id="text_7"
     style="stroke-linecap:butt;stroke-linejoin:round"
     transform="matrix(1.0864355,0,0,1.0864355,-90.496866,-209.88564)">
    <!-- T19B4.7.1_TRINITY_14 -->
    <g
       transform="matrix(0.12,0,0,-0.12,376.3943,501.75993)"
       id="g325"
       style="stroke-linecap:butt;stroke-linejoin:round">
      <use
         xlink:href="#DejaVuSans-84"
         id="use285"
         style="stroke-linecap:butt;stroke-linejoin:round"
         x="0"
         y="0"
         width="100%"
         height="100%" />
      <use
         x="61.083984"
         xlink:href="#DejaVuSans-49"
         id="use287"
         style="stroke-linecap:butt;stroke-linejoin:round"
         y="0"
         width="100%"
         height="100%" />
      <use
         x="124.70703"
         xlink:href="#DejaVuSans-57"
         id="use289"
         style="stroke-linecap:butt;stroke-linejoin:round"
         y="0"
         width="100%"
         height="100%" />
      <use
         x="188.33008"
         xlink:href="#DejaVuSans-66"
         id="use291"
         style="stroke-linecap:butt;stroke-linejoin:round"
         y="0"
         width="100%"
         height="100%" />
      <use
         x="256.93359"
         xlink:href="#DejaVuSans-52"
         id="use293"
         style="stroke-linecap:butt;stroke-linejoin:round"
         y="0"
         width="100%"
         height="100%" />
      <use
         x="320.55664"
         xlink:href="#DejaVuSans-46"
         id="use295"
         style="stroke-linecap:butt;stroke-linejoin:round"
         y="0"
         width="100%"
         height="100%" />
      <use
         x="352.34375"
         xlink:href="#DejaVuSans-55"
         id="use297"
         style="stroke-linecap:butt;stroke-linejoin:round"
         y="0"
         width="100%"
         height="100%" />
      <use
         x="415.9668"
         xlink:href="#DejaVuSans-46"
         id="use299"
         style="stroke-linecap:butt;stroke-linejoin:round"
         y="0"
         width="100%"
         height="100%" />
      <use
         x="447.75391"
         xlink:href="#DejaVuSans-49"
         id="use301"
         style="stroke-linecap:butt;stroke-linejoin:round"
         y="0"
         width="100%"
         height="100%" />
      <use
         x="511.37695"
         xlink:href="#DejaVuSans-95"
         id="use303"
         style="stroke-linecap:butt;stroke-linejoin:round"
         y="0"
         width="100%"
         height="100%" />
      <use
         x="561.37695"
         xlink:href="#DejaVuSans-84"
         id="use305"
         style="stroke-linecap:butt;stroke-linejoin:round"
         y="0"
         width="100%"
         height="100%" />
      <use
         x="622.46094"
         xlink:href="#DejaVuSans-82"
         id="use307"
         style="stroke-linecap:butt;stroke-linejoin:round"
         y="0"
         width="100%"
         height="100%" />
      <use
         x="691.94336"
         xlink:href="#DejaVuSans-73"
         id="use309"
         style="stroke-linecap:butt;stroke-linejoin:round"
         y="0"
         width="100%"
         height="100%" />
      <use
         x="721.43555"
         xlink:href="#DejaVuSans-78"
         id="use311"
         style="stroke-linecap:butt;stroke-linejoin:round"
         y="0"
         width="100%"
         height="100%" />
      <use
         x="796.24023"
         xlink:href="#DejaVuSans-73"
         id="use313"
         style="stroke-linecap:butt;stroke-linejoin:round"
         y="0"
         width="100%"
         height="100%" />
      <use
         x="825.73242"
         xlink:href="#DejaVuSans-84"
         id="use315"
         style="stroke-linecap:butt;stroke-linejoin:round"
         y="0"
         width="100%"
         height="100%" />
      <use
         x="886.81641"
         xlink:href="#DejaVuSans-89"
         id="use317"
         style="stroke-linecap:butt;stroke-linejoin:round"
         y="0"
         width="100%"
         height="100%" />
      <use
         x="947.90039"
         xlink:href="#DejaVuSans-95"
         id="use319"
         style="stroke-linecap:butt;stroke-linejoin:round"
         y="0"
         width="100%"
         height="100%" />
      <use
         x="997.90039"
         xlink:href="#DejaVuSans-49"
         id="use321"
         style="stroke-linecap:butt;stroke-linejoin:round"
         y="0"
         width="100%"
         height="100%" />
      <use
         x="1061.5234"
         xlink:href="#DejaVuSans-52"
         id="use323"
         style="stroke-linecap:butt;stroke-linejoin:round"
         y="0"
         width="100%"
         height="100%" />
    </g>
  </g>
  <defs
     id="defs333">
    <clipPath
       id="pc3504137d0"
       style="stroke-linecap:butt;stroke-linejoin:round">
      <rect
         height="244.8"
         width="244.8"
         x="237.60001"
         y="237.60001"
         id="rect330"
         style="stroke-linecap:butt;stroke-linejoin:round" />
    </clipPath>
  </defs>
  <path
     sodipodi:type="star"
     style="opacity:1;fill:#000000;fill-opacity:1;stroke-width:1.5;stroke-linecap:butt;stroke-linejoin:round;stroke-miterlimit:4;stroke-dasharray:none"
     id="path4906"
     sodipodi:sides="5"
     sodipodi:cx="770.03925"
     sodipodi:cy="174.53523"
     sodipodi:r1="12.093387"
     sodipodi:r2="6.0466933"
     sodipodi:arg1="1.3045443"
     sodipodi:arg2="1.9328628"
     inkscape:flatsided="false"
     inkscape:rounded="0"
     inkscape:randomized="0"
     d="m 773.22123,186.20249 -5.32377,-6.01259 -7.97115,0.97696 4.07318,-6.9212 -3.39237,-7.27912 7.84114,1.73506 5.87455,-5.4757 0.77291,7.99352 7.02304,3.89495 -7.36345,3.20521 z"
     inkscape:transform-center-x="-0.540516"
     inkscape:transform-center-y="-0.62861181"
     transform="rotate(-12.428644,876.64897,2731.7195)" />
  <path
     sodipodi:type="star"
     style="opacity:1;fill:#000000;fill-opacity:1;stroke-width:1.5;stroke-linecap:butt;stroke-linejoin:round;stroke-miterlimit:4;stroke-dasharray:none"
     id="path4906-9"
     sodipodi:sides="5"
     sodipodi:cx="770.03925"
     sodipodi:cy="174.53523"
     sodipodi:r1="12.093387"
     sodipodi:r2="6.0466933"
     sodipodi:arg1="1.3045443"
     sodipodi:arg2="1.9328628"
     inkscape:flatsided="false"
     inkscape:rounded="0"
     inkscape:randomized="0"
     d="m 773.22123,186.20249 -5.32377,-6.01259 -7.97115,0.97696 4.07318,-6.9212 -3.39237,-7.27912 7.84114,1.73506 5.87455,-5.4757 0.77291,7.99352 7.02304,3.89495 -7.36345,3.20521 z"
     inkscape:transform-center-x="-0.540516"
     inkscape:transform-center-y="-0.62861181"
     transform="rotate(-12.428644,141.05127,2066.893)" />
</svg>
