<?xml version="1.0" encoding="utf-8" standalone="no"?>
<!DOCTYPE svg PUBLIC "-//W3C//DTD SVG 1.1//EN"
  "http://www.w3.org/Graphics/SVG/1.1/DTD/svg11.dtd">
<!-- Created with matplotlib (https://matplotlib.org/) -->
<svg height="432pt" version="1.1" viewBox="0 0 486.99156 432" width="486.99156pt" xmlns="http://www.w3.org/2000/svg" xmlns:xlink="http://www.w3.org/1999/xlink">
 <defs>
  <style type="text/css">
*{stroke-linecap:butt;stroke-linejoin:round;}
  </style>
 </defs>
 <g id="figure_1">
  <g id="patch_1">
   <path d="M 0 432 
L 486.99156 432 
L 486.99156 0 
L 0 0 
z
" style="fill:#ffffff;"/>
  </g>
  <g id="axes_1">
   <g id="patch_2">
    <path d="M 83.627696 405.45 
L 475.577696 405.45 
L 475.577696 13.5 
L 83.627696 13.5 
z
" style="fill:#ffffff;"/>
   </g>
   <g id="matplotlib.axis_1"/>
   <g id="matplotlib.axis_2">
    <g id="ytick_1">
     <g id="line2d_1">
      <defs>
       <path d="M 0 0 
L -3.5 0 
" id="mee15c57aa6" style="stroke:#000000;stroke-width:0.8;"/>
      </defs>
      <g>
       <use style="stroke:#000000;stroke-width:0.8;" x="83.627696" xlink:href="#mee15c57aa6" y="405.45"/>
      </g>
     </g>
     <g id="text_1">
      <!-- 0.00 -->
      <defs>
       <path d="M 31.78125 66.40625 
Q 24.171875 66.40625 20.328125 58.90625 
Q 16.5 51.421875 16.5 36.375 
Q 16.5 21.390625 20.328125 13.890625 
Q 24.171875 6.390625 31.78125 6.390625 
Q 39.453125 6.390625 43.28125 13.890625 
Q 47.125 21.390625 47.125 36.375 
Q 47.125 51.421875 43.28125 58.90625 
Q 39.453125 66.40625 31.78125 66.40625 
z
M 31.78125 74.21875 
Q 44.046875 74.21875 50.515625 64.515625 
Q 56.984375 54.828125 56.984375 36.375 
Q 56.984375 17.96875 50.515625 8.265625 
Q 44.046875 -1.421875 31.78125 -1.421875 
Q 19.53125 -1.421875 13.0625 8.265625 
Q 6.59375 17.96875 6.59375 36.375 
Q 6.59375 54.828125 13.0625 64.515625 
Q 19.53125 74.21875 31.78125 74.21875 
z
" id="DejaVuSans-48"/>
       <path d="M 10.6875 12.40625 
L 21 12.40625 
L 21 0 
L 10.6875 0 
z
" id="DejaVuSans-46"/>
      </defs>
      <g transform="translate(36.549571 412.288594)scale(0.18 -0.18)">
       <use xlink:href="#DejaVuSans-48"/>
       <use x="63.623047" xlink:href="#DejaVuSans-46"/>
       <use x="95.410156" xlink:href="#DejaVuSans-48"/>
       <use x="159.033203" xlink:href="#DejaVuSans-48"/>
      </g>
     </g>
    </g>
    <g id="ytick_2">
     <g id="line2d_2">
      <g>
       <use style="stroke:#000000;stroke-width:0.8;" x="83.627696" xlink:href="#mee15c57aa6" y="319.396577"/>
      </g>
     </g>
     <g id="text_2">
      <!-- 0.05 -->
      <defs>
       <path d="M 10.796875 72.90625 
L 49.515625 72.90625 
L 49.515625 64.59375 
L 19.828125 64.59375 
L 19.828125 46.734375 
Q 21.96875 47.46875 24.109375 47.828125 
Q 26.265625 48.1875 28.421875 48.1875 
Q 40.625 48.1875 47.75 41.5 
Q 54.890625 34.8125 54.890625 23.390625 
Q 54.890625 11.625 47.5625 5.09375 
Q 40.234375 -1.421875 26.90625 -1.421875 
Q 22.3125 -1.421875 17.546875 -0.640625 
Q 12.796875 0.140625 7.71875 1.703125 
L 7.71875 11.625 
Q 12.109375 9.234375 16.796875 8.0625 
Q 21.484375 6.890625 26.703125 6.890625 
Q 35.15625 6.890625 40.078125 11.328125 
Q 45.015625 15.765625 45.015625 23.390625 
Q 45.015625 31 40.078125 35.4375 
Q 35.15625 39.890625 26.703125 39.890625 
Q 22.75 39.890625 18.8125 39.015625 
Q 14.890625 38.140625 10.796875 36.28125 
z
" id="DejaVuSans-53"/>
      </defs>
      <g transform="translate(36.549571 326.235171)scale(0.18 -0.18)">
       <use xlink:href="#DejaVuSans-48"/>
       <use x="63.623047" xlink:href="#DejaVuSans-46"/>
       <use x="95.410156" xlink:href="#DejaVuSans-48"/>
       <use x="159.033203" xlink:href="#DejaVuSans-53"/>
      </g>
     </g>
    </g>
    <g id="ytick_3">
     <g id="line2d_3">
      <g>
       <use style="stroke:#000000;stroke-width:0.8;" x="83.627696" xlink:href="#mee15c57aa6" y="233.343154"/>
      </g>
     </g>
     <g id="text_3">
      <!-- 0.10 -->
      <defs>
       <path d="M 12.40625 8.296875 
L 28.515625 8.296875 
L 28.515625 63.921875 
L 10.984375 60.40625 
L 10.984375 69.390625 
L 28.421875 72.90625 
L 38.28125 72.90625 
L 38.28125 8.296875 
L 54.390625 8.296875 
L 54.390625 0 
L 12.40625 0 
z
" id="DejaVuSans-49"/>
      </defs>
      <g transform="translate(36.549571 240.181747)scale(0.18 -0.18)">
       <use xlink:href="#DejaVuSans-48"/>
       <use x="63.623047" xlink:href="#DejaVuSans-46"/>
       <use x="95.410156" xlink:href="#DejaVuSans-49"/>
       <use x="159.033203" xlink:href="#DejaVuSans-48"/>
      </g>
     </g>
    </g>
    <g id="ytick_4">
     <g id="line2d_4">
      <g>
       <use style="stroke:#000000;stroke-width:0.8;" x="83.627696" xlink:href="#mee15c57aa6" y="147.289731"/>
      </g>
     </g>
     <g id="text_4">
      <!-- 0.15 -->
      <g transform="translate(36.549571 154.128324)scale(0.18 -0.18)">
       <use xlink:href="#DejaVuSans-48"/>
       <use x="63.623047" xlink:href="#DejaVuSans-46"/>
       <use x="95.410156" xlink:href="#DejaVuSans-49"/>
       <use x="159.033203" xlink:href="#DejaVuSans-53"/>
      </g>
     </g>
    </g>
    <g id="ytick_5">
     <g id="line2d_5">
      <g>
       <use style="stroke:#000000;stroke-width:0.8;" x="83.627696" xlink:href="#mee15c57aa6" y="61.236307"/>
      </g>
     </g>
     <g id="text_5">
      <!-- 0.20 -->
      <defs>
       <path d="M 19.1875 8.296875 
L 53.609375 8.296875 
L 53.609375 0 
L 7.328125 0 
L 7.328125 8.296875 
Q 12.9375 14.109375 22.625 23.890625 
Q 32.328125 33.6875 34.8125 36.53125 
Q 39.546875 41.84375 41.421875 45.53125 
Q 43.3125 49.21875 43.3125 52.78125 
Q 43.3125 58.59375 39.234375 62.25 
Q 35.15625 65.921875 28.609375 65.921875 
Q 23.96875 65.921875 18.8125 64.3125 
Q 13.671875 62.703125 7.8125 59.421875 
L 7.8125 69.390625 
Q 13.765625 71.78125 18.9375 73 
Q 24.125 74.21875 28.421875 74.21875 
Q 39.75 74.21875 46.484375 68.546875 
Q 53.21875 62.890625 53.21875 53.421875 
Q 53.21875 48.921875 51.53125 44.890625 
Q 49.859375 40.875 45.40625 35.40625 
Q 44.1875 33.984375 37.640625 27.21875 
Q 31.109375 20.453125 19.1875 8.296875 
z
" id="DejaVuSans-50"/>
      </defs>
      <g transform="translate(36.549571 68.074901)scale(0.18 -0.18)">
       <use xlink:href="#DejaVuSans-48"/>
       <use x="63.623047" xlink:href="#DejaVuSans-46"/>
       <use x="95.410156" xlink:href="#DejaVuSans-50"/>
       <use x="159.033203" xlink:href="#DejaVuSans-48"/>
      </g>
     </g>
    </g>
    <g id="text_6">
     <!-- Euclidian distance -->
     <defs>
      <path d="M 9.8125 72.90625 
L 55.90625 72.90625 
L 55.90625 64.59375 
L 19.671875 64.59375 
L 19.671875 43.015625 
L 54.390625 43.015625 
L 54.390625 34.71875 
L 19.671875 34.71875 
L 19.671875 8.296875 
L 56.78125 8.296875 
L 56.78125 0 
L 9.8125 0 
z
" id="DejaVuSans-69"/>
      <path d="M 8.5 21.578125 
L 8.5 54.6875 
L 17.484375 54.6875 
L 17.484375 21.921875 
Q 17.484375 14.15625 20.5 10.265625 
Q 23.53125 6.390625 29.59375 6.390625 
Q 36.859375 6.390625 41.078125 11.03125 
Q 45.3125 15.671875 45.3125 23.6875 
L 45.3125 54.6875 
L 54.296875 54.6875 
L 54.296875 0 
L 45.3125 0 
L 45.3125 8.40625 
Q 42.046875 3.421875 37.71875 1 
Q 33.40625 -1.421875 27.6875 -1.421875 
Q 18.265625 -1.421875 13.375 4.4375 
Q 8.5 10.296875 8.5 21.578125 
z
M 31.109375 56 
z
" id="DejaVuSans-117"/>
      <path d="M 48.78125 52.59375 
L 48.78125 44.1875 
Q 44.96875 46.296875 41.140625 47.34375 
Q 37.3125 48.390625 33.40625 48.390625 
Q 24.65625 48.390625 19.8125 42.84375 
Q 14.984375 37.3125 14.984375 27.296875 
Q 14.984375 17.28125 19.8125 11.734375 
Q 24.65625 6.203125 33.40625 6.203125 
Q 37.3125 6.203125 41.140625 7.25 
Q 44.96875 8.296875 48.78125 10.40625 
L 48.78125 2.09375 
Q 45.015625 0.34375 40.984375 -0.53125 
Q 36.96875 -1.421875 32.421875 -1.421875 
Q 20.0625 -1.421875 12.78125 6.34375 
Q 5.515625 14.109375 5.515625 27.296875 
Q 5.515625 40.671875 12.859375 48.328125 
Q 20.21875 56 33.015625 56 
Q 37.15625 56 41.109375 55.140625 
Q 45.0625 54.296875 48.78125 52.59375 
z
" id="DejaVuSans-99"/>
      <path d="M 9.421875 75.984375 
L 18.40625 75.984375 
L 18.40625 0 
L 9.421875 0 
z
" id="DejaVuSans-108"/>
      <path d="M 9.421875 54.6875 
L 18.40625 54.6875 
L 18.40625 0 
L 9.421875 0 
z
M 9.421875 75.984375 
L 18.40625 75.984375 
L 18.40625 64.59375 
L 9.421875 64.59375 
z
" id="DejaVuSans-105"/>
      <path d="M 45.40625 46.390625 
L 45.40625 75.984375 
L 54.390625 75.984375 
L 54.390625 0 
L 45.40625 0 
L 45.40625 8.203125 
Q 42.578125 3.328125 38.25 0.953125 
Q 33.9375 -1.421875 27.875 -1.421875 
Q 17.96875 -1.421875 11.734375 6.484375 
Q 5.515625 14.40625 5.515625 27.296875 
Q 5.515625 40.1875 11.734375 48.09375 
Q 17.96875 56 27.875 56 
Q 33.9375 56 38.25 53.625 
Q 42.578125 51.265625 45.40625 46.390625 
z
M 14.796875 27.296875 
Q 14.796875 17.390625 18.875 11.75 
Q 22.953125 6.109375 30.078125 6.109375 
Q 37.203125 6.109375 41.296875 11.75 
Q 45.40625 17.390625 45.40625 27.296875 
Q 45.40625 37.203125 41.296875 42.84375 
Q 37.203125 48.484375 30.078125 48.484375 
Q 22.953125 48.484375 18.875 42.84375 
Q 14.796875 37.203125 14.796875 27.296875 
z
" id="DejaVuSans-100"/>
      <path d="M 34.28125 27.484375 
Q 23.390625 27.484375 19.1875 25 
Q 14.984375 22.515625 14.984375 16.5 
Q 14.984375 11.71875 18.140625 8.90625 
Q 21.296875 6.109375 26.703125 6.109375 
Q 34.1875 6.109375 38.703125 11.40625 
Q 43.21875 16.703125 43.21875 25.484375 
L 43.21875 27.484375 
z
M 52.203125 31.203125 
L 52.203125 0 
L 43.21875 0 
L 43.21875 8.296875 
Q 40.140625 3.328125 35.546875 0.953125 
Q 30.953125 -1.421875 24.3125 -1.421875 
Q 15.921875 -1.421875 10.953125 3.296875 
Q 6 8.015625 6 15.921875 
Q 6 25.140625 12.171875 29.828125 
Q 18.359375 34.515625 30.609375 34.515625 
L 43.21875 34.515625 
L 43.21875 35.40625 
Q 43.21875 41.609375 39.140625 45 
Q 35.0625 48.390625 27.6875 48.390625 
Q 23 48.390625 18.546875 47.265625 
Q 14.109375 46.140625 10.015625 43.890625 
L 10.015625 52.203125 
Q 14.9375 54.109375 19.578125 55.046875 
Q 24.21875 56 28.609375 56 
Q 40.484375 56 46.34375 49.84375 
Q 52.203125 43.703125 52.203125 31.203125 
z
" id="DejaVuSans-97"/>
      <path d="M 54.890625 33.015625 
L 54.890625 0 
L 45.90625 0 
L 45.90625 32.71875 
Q 45.90625 40.484375 42.875 44.328125 
Q 39.84375 48.1875 33.796875 48.1875 
Q 26.515625 48.1875 22.3125 43.546875 
Q 18.109375 38.921875 18.109375 30.90625 
L 18.109375 0 
L 9.078125 0 
L 9.078125 54.6875 
L 18.109375 54.6875 
L 18.109375 46.1875 
Q 21.34375 51.125 25.703125 53.5625 
Q 30.078125 56 35.796875 56 
Q 45.21875 56 50.046875 50.171875 
Q 54.890625 44.34375 54.890625 33.015625 
z
" id="DejaVuSans-110"/>
      <path id="DejaVuSans-32"/>
      <path d="M 44.28125 53.078125 
L 44.28125 44.578125 
Q 40.484375 46.53125 36.375 47.5 
Q 32.28125 48.484375 27.875 48.484375 
Q 21.1875 48.484375 17.84375 46.4375 
Q 14.5 44.390625 14.5 40.28125 
Q 14.5 37.15625 16.890625 35.375 
Q 19.28125 33.59375 26.515625 31.984375 
L 29.59375 31.296875 
Q 39.15625 29.25 43.1875 25.515625 
Q 47.21875 21.78125 47.21875 15.09375 
Q 47.21875 7.46875 41.1875 3.015625 
Q 35.15625 -1.421875 24.609375 -1.421875 
Q 20.21875 -1.421875 15.453125 -0.5625 
Q 10.6875 0.296875 5.421875 2 
L 5.421875 11.28125 
Q 10.40625 8.6875 15.234375 7.390625 
Q 20.0625 6.109375 24.8125 6.109375 
Q 31.15625 6.109375 34.5625 8.28125 
Q 37.984375 10.453125 37.984375 14.40625 
Q 37.984375 18.0625 35.515625 20.015625 
Q 33.0625 21.96875 24.703125 23.78125 
L 21.578125 24.515625 
Q 13.234375 26.265625 9.515625 29.90625 
Q 5.8125 33.546875 5.8125 39.890625 
Q 5.8125 47.609375 11.28125 51.796875 
Q 16.75 56 26.8125 56 
Q 31.78125 56 36.171875 55.265625 
Q 40.578125 54.546875 44.28125 53.078125 
z
" id="DejaVuSans-115"/>
      <path d="M 18.3125 70.21875 
L 18.3125 54.6875 
L 36.8125 54.6875 
L 36.8125 47.703125 
L 18.3125 47.703125 
L 18.3125 18.015625 
Q 18.3125 11.328125 20.140625 9.421875 
Q 21.96875 7.515625 27.59375 7.515625 
L 36.8125 7.515625 
L 36.8125 0 
L 27.59375 0 
Q 17.1875 0 13.234375 3.875 
Q 9.28125 7.765625 9.28125 18.015625 
L 9.28125 47.703125 
L 2.6875 47.703125 
L 2.6875 54.6875 
L 9.28125 54.6875 
L 9.28125 70.21875 
z
" id="DejaVuSans-116"/>
      <path d="M 56.203125 29.59375 
L 56.203125 25.203125 
L 14.890625 25.203125 
Q 15.484375 15.921875 20.484375 11.0625 
Q 25.484375 6.203125 34.421875 6.203125 
Q 39.59375 6.203125 44.453125 7.46875 
Q 49.3125 8.734375 54.109375 11.28125 
L 54.109375 2.78125 
Q 49.265625 0.734375 44.1875 -0.34375 
Q 39.109375 -1.421875 33.890625 -1.421875 
Q 20.796875 -1.421875 13.15625 6.1875 
Q 5.515625 13.8125 5.515625 26.8125 
Q 5.515625 40.234375 12.765625 48.109375 
Q 20.015625 56 32.328125 56 
Q 43.359375 56 49.78125 48.890625 
Q 56.203125 41.796875 56.203125 29.59375 
z
M 47.21875 32.234375 
Q 47.125 39.59375 43.09375 43.984375 
Q 39.0625 48.390625 32.421875 48.390625 
Q 24.90625 48.390625 20.390625 44.140625 
Q 15.875 39.890625 15.1875 32.171875 
z
" id="DejaVuSans-101"/>
     </defs>
     <g transform="translate(28.806133 291.244219)rotate(-90)scale(0.18 -0.18)">
      <use xlink:href="#DejaVuSans-69"/>
      <use x="63.183594" xlink:href="#DejaVuSans-117"/>
      <use x="126.5625" xlink:href="#DejaVuSans-99"/>
      <use x="181.542969" xlink:href="#DejaVuSans-108"/>
      <use x="209.326172" xlink:href="#DejaVuSans-105"/>
      <use x="237.109375" xlink:href="#DejaVuSans-100"/>
      <use x="300.585938" xlink:href="#DejaVuSans-105"/>
      <use x="328.369141" xlink:href="#DejaVuSans-97"/>
      <use x="389.648438" xlink:href="#DejaVuSans-110"/>
      <use x="453.027344" xlink:href="#DejaVuSans-32"/>
      <use x="484.814453" xlink:href="#DejaVuSans-100"/>
      <use x="548.291016" xlink:href="#DejaVuSans-105"/>
      <use x="576.074219" xlink:href="#DejaVuSans-115"/>
      <use x="628.173828" xlink:href="#DejaVuSans-116"/>
      <use x="667.382812" xlink:href="#DejaVuSans-97"/>
      <use x="728.662109" xlink:href="#DejaVuSans-110"/>
      <use x="792.041016" xlink:href="#DejaVuSans-99"/>
      <use x="847.021484" xlink:href="#DejaVuSans-101"/>
     </g>
    </g>
   </g>
   <g id="LineCollection_1">
    <path clip-path="url(#pf0a6e7584d)" d="M 97.345946 405.45 
L 97.345946 362.492192 
L 101.265446 362.492192 
L 101.265446 405.45 
" style="fill:none;stroke:#1f77b4;stroke-width:1.5;"/>
    <path clip-path="url(#pf0a6e7584d)" d="M 113.023946 405.45 
L 113.023946 387.190658 
L 116.943446 387.190658 
L 116.943446 405.45 
" style="fill:none;stroke:#1f77b4;stroke-width:1.5;"/>
    <path clip-path="url(#pf0a6e7584d)" d="M 109.104446 405.45 
L 109.104446 378.857239 
L 114.983696 378.857239 
L 114.983696 387.190658 
" style="fill:none;stroke:#1f77b4;stroke-width:1.5;"/>
    <path clip-path="url(#pf0a6e7584d)" d="M 105.184946 405.45 
L 105.184946 364.927509 
L 112.044071 364.927509 
L 112.044071 378.857239 
" style="fill:none;stroke:#1f77b4;stroke-width:1.5;"/>
    <path clip-path="url(#pf0a6e7584d)" d="M 132.621446 405.45 
L 132.621446 371.620661 
L 136.540946 371.620661 
L 136.540946 405.45 
" style="fill:none;stroke:#1f77b4;stroke-width:1.5;"/>
    <path clip-path="url(#pf0a6e7584d)" d="M 128.701946 405.45 
L 128.701946 369.00606 
L 134.581196 369.00606 
L 134.581196 371.620661 
" style="fill:none;stroke:#1f77b4;stroke-width:1.5;"/>
    <path clip-path="url(#pf0a6e7584d)" d="M 152.218946 405.45 
L 152.218946 382.587705 
L 156.138446 382.587705 
L 156.138446 405.45 
" style="fill:none;stroke:#1f77b4;stroke-width:1.5;"/>
    <path clip-path="url(#pf0a6e7584d)" d="M 167.896946 405.45 
L 167.896946 400.141976 
L 171.816446 400.141976 
L 171.816446 405.45 
" style="fill:none;stroke:#1f77b4;stroke-width:1.5;"/>
    <path clip-path="url(#pf0a6e7584d)" d="M 175.735946 405.45 
L 175.735946 397.436702 
L 179.655446 397.436702 
L 179.655446 405.45 
" style="fill:none;stroke:#1f77b4;stroke-width:1.5;"/>
    <path clip-path="url(#pf0a6e7584d)" d="M 169.856696 400.141976 
L 169.856696 394.606729 
L 177.695696 394.606729 
L 177.695696 397.436702 
" style="fill:none;stroke:#1f77b4;stroke-width:1.5;"/>
    <path clip-path="url(#pf0a6e7584d)" d="M 163.977446 405.45 
L 163.977446 385.325825 
L 173.776196 385.325825 
L 173.776196 394.606729 
" style="fill:none;stroke:#1f77b4;stroke-width:1.5;"/>
    <path clip-path="url(#pf0a6e7584d)" d="M 160.057946 405.45 
L 160.057946 381.157424 
L 168.876821 381.157424 
L 168.876821 385.325825 
" style="fill:none;stroke:#1f77b4;stroke-width:1.5;"/>
    <path clip-path="url(#pf0a6e7584d)" d="M 154.178696 382.587705 
L 154.178696 379.186395 
L 164.467383 379.186395 
L 164.467383 381.157424 
" style="fill:none;stroke:#1f77b4;stroke-width:1.5;"/>
    <path clip-path="url(#pf0a6e7584d)" d="M 191.413946 405.45 
L 191.413946 402.815294 
L 195.333446 402.815294 
L 195.333446 405.45 
" style="fill:none;stroke:#1f77b4;stroke-width:1.5;"/>
    <path clip-path="url(#pf0a6e7584d)" d="M 187.494446 405.45 
L 187.494446 395.42217 
L 193.373696 395.42217 
L 193.373696 402.815294 
" style="fill:none;stroke:#1f77b4;stroke-width:1.5;"/>
    <path clip-path="url(#pf0a6e7584d)" d="M 183.574946 405.45 
L 183.574946 392.869018 
L 190.434071 392.869018 
L 190.434071 395.42217 
" style="fill:none;stroke:#1f77b4;stroke-width:1.5;"/>
    <path clip-path="url(#pf0a6e7584d)" d="M 199.252946 405.45 
L 199.252946 388.117445 
L 203.172446 388.117445 
L 203.172446 405.45 
" style="fill:none;stroke:#1f77b4;stroke-width:1.5;"/>
    <path clip-path="url(#pf0a6e7584d)" d="M 187.004508 392.869018 
L 187.004508 374.599905 
L 201.212696 374.599905 
L 201.212696 388.117445 
" style="fill:none;stroke:#1f77b4;stroke-width:1.5;"/>
    <path clip-path="url(#pf0a6e7584d)" d="M 159.323039 379.186395 
L 159.323039 373.758784 
L 194.108602 373.758784 
L 194.108602 374.599905 
" style="fill:none;stroke:#1f77b4;stroke-width:1.5;"/>
    <path clip-path="url(#pf0a6e7584d)" d="M 148.299446 405.45 
L 148.299446 372.941404 
L 176.715821 372.941404 
L 176.715821 373.758784 
" style="fill:none;stroke:#1f77b4;stroke-width:1.5;"/>
    <path clip-path="url(#pf0a6e7584d)" d="M 144.379946 405.45 
L 144.379946 367.817484 
L 162.507633 367.817484 
L 162.507633 372.941404 
" style="fill:none;stroke:#1f77b4;stroke-width:1.5;"/>
    <path clip-path="url(#pf0a6e7584d)" d="M 140.460446 405.45 
L 140.460446 366.718039 
L 153.443789 366.718039 
L 153.443789 367.817484 
" style="fill:none;stroke:#1f77b4;stroke-width:1.5;"/>
    <path clip-path="url(#pf0a6e7584d)" d="M 131.641571 369.00606 
L 131.641571 364.549605 
L 146.952118 364.549605 
L 146.952118 366.718039 
" style="fill:none;stroke:#1f77b4;stroke-width:1.5;"/>
    <path clip-path="url(#pf0a6e7584d)" d="M 124.782446 405.45 
L 124.782446 359.821628 
L 139.296844 359.821628 
L 139.296844 364.549605 
" style="fill:none;stroke:#1f77b4;stroke-width:1.5;"/>
    <path clip-path="url(#pf0a6e7584d)" d="M 120.862946 405.45 
L 120.862946 358.931642 
L 132.039645 358.931642 
L 132.039645 359.821628 
" style="fill:none;stroke:#1f77b4;stroke-width:1.5;"/>
    <path clip-path="url(#pf0a6e7584d)" d="M 108.614508 364.927509 
L 108.614508 354.33022 
L 126.451295 354.33022 
L 126.451295 358.931642 
" style="fill:none;stroke:#1f77b4;stroke-width:1.5;"/>
    <path clip-path="url(#pf0a6e7584d)" d="M 99.305696 362.492192 
L 99.305696 346.403346 
L 117.532902 346.403346 
L 117.532902 354.33022 
" style="fill:none;stroke:#1f77b4;stroke-width:1.5;"/>
    <path clip-path="url(#pf0a6e7584d)" d="M 93.426446 405.45 
L 93.426446 340.578271 
L 108.419299 340.578271 
L 108.419299 346.403346 
" style="fill:none;stroke:#1f77b4;stroke-width:1.5;"/>
    <path clip-path="url(#pf0a6e7584d)" d="M 211.011446 405.45 
L 211.011446 377.674957 
L 214.930946 377.674957 
L 214.930946 405.45 
" style="fill:none;stroke:#1f77b4;stroke-width:1.5;"/>
    <path clip-path="url(#pf0a6e7584d)" d="M 207.091946 405.45 
L 207.091946 340.059289 
L 212.971196 340.059289 
L 212.971196 377.674957 
" style="fill:none;stroke:#1f77b4;stroke-width:1.5;"/>
    <path clip-path="url(#pf0a6e7584d)" d="M 100.922872 340.578271 
L 100.922872 339.115362 
L 210.031571 339.115362 
L 210.031571 340.059289 
" style="fill:none;stroke:#1f77b4;stroke-width:1.5;"/>
    <path clip-path="url(#pf0a6e7584d)" d="M 89.506946 405.45 
L 89.506946 333.833102 
L 155.477221 333.833102 
L 155.477221 339.115362 
" style="fill:none;stroke:#1f77b4;stroke-width:1.5;"/>
    <path clip-path="url(#pf0a6e7584d)" d="M 85.587446 405.45 
L 85.587446 318.854777 
L 122.492084 318.854777 
L 122.492084 333.833102 
" style="fill:none;stroke:#1f77b4;stroke-width:1.5;"/>
   </g>
   <g id="LineCollection_2">
    <path clip-path="url(#pf0a6e7584d)" d="M 222.769946 405.45 
L 222.769946 373.002457 
L 226.689446 373.002457 
L 226.689446 405.45 
" style="fill:none;stroke:#2ca02c;stroke-width:1.5;"/>
    <path clip-path="url(#pf0a6e7584d)" d="M 218.850446 405.45 
L 218.850446 358.901227 
L 224.729696 358.901227 
L 224.729696 373.002457 
" style="fill:none;stroke:#2ca02c;stroke-width:1.5;"/>
    <path clip-path="url(#pf0a6e7584d)" d="M 250.206446 405.45 
L 250.206446 358.312561 
L 254.125946 358.312561 
L 254.125946 405.45 
" style="fill:none;stroke:#2ca02c;stroke-width:1.5;"/>
    <path clip-path="url(#pf0a6e7584d)" d="M 246.286946 405.45 
L 246.286946 345.083746 
L 252.166196 345.083746 
L 252.166196 358.312561 
" style="fill:none;stroke:#2ca02c;stroke-width:1.5;"/>
    <path clip-path="url(#pf0a6e7584d)" d="M 242.367446 405.45 
L 242.367446 311.584118 
L 249.226571 311.584118 
L 249.226571 345.083746 
" style="fill:none;stroke:#2ca02c;stroke-width:1.5;"/>
    <path clip-path="url(#pf0a6e7584d)" d="M 238.447946 405.45 
L 238.447946 285.667422 
L 245.797008 285.667422 
L 245.797008 311.584118 
" style="fill:none;stroke:#2ca02c;stroke-width:1.5;"/>
    <path clip-path="url(#pf0a6e7584d)" d="M 234.528446 405.45 
L 234.528446 279.654253 
L 242.122477 279.654253 
L 242.122477 285.667422 
" style="fill:none;stroke:#2ca02c;stroke-width:1.5;"/>
    <path clip-path="url(#pf0a6e7584d)" d="M 230.608946 405.45 
L 230.608946 274.743661 
L 238.325461 274.743661 
L 238.325461 279.654253 
" style="fill:none;stroke:#2ca02c;stroke-width:1.5;"/>
    <path clip-path="url(#pf0a6e7584d)" d="M 221.790071 358.901227 
L 221.790071 267.159958 
L 234.467204 267.159958 
L 234.467204 274.743661 
" style="fill:none;stroke:#2ca02c;stroke-width:1.5;"/>
    <path clip-path="url(#pf0a6e7584d)" d="M 265.884446 405.45 
L 265.884446 324.465733 
L 269.803946 324.465733 
L 269.803946 405.45 
" style="fill:none;stroke:#2ca02c;stroke-width:1.5;"/>
    <path clip-path="url(#pf0a6e7584d)" d="M 261.964946 405.45 
L 261.964946 294.340792 
L 267.844196 294.340792 
L 267.844196 324.465733 
" style="fill:none;stroke:#2ca02c;stroke-width:1.5;"/>
    <path clip-path="url(#pf0a6e7584d)" d="M 258.045446 405.45 
L 258.045446 289.241797 
L 264.904571 289.241797 
L 264.904571 294.340792 
" style="fill:none;stroke:#2ca02c;stroke-width:1.5;"/>
    <path clip-path="url(#pf0a6e7584d)" d="M 273.723446 405.45 
L 273.723446 359.031447 
L 277.642946 359.031447 
L 277.642946 405.45 
" style="fill:none;stroke:#2ca02c;stroke-width:1.5;"/>
    <path clip-path="url(#pf0a6e7584d)" d="M 281.562446 405.45 
L 281.562446 291.548243 
L 285.481946 291.548243 
L 285.481946 405.45 
" style="fill:none;stroke:#2ca02c;stroke-width:1.5;"/>
    <path clip-path="url(#pf0a6e7584d)" d="M 308.998946 405.45 
L 308.998946 366.559961 
L 312.918446 366.559961 
L 312.918446 405.45 
" style="fill:none;stroke:#2ca02c;stroke-width:1.5;"/>
    <path clip-path="url(#pf0a6e7584d)" d="M 305.079446 405.45 
L 305.079446 359.837322 
L 310.958696 359.837322 
L 310.958696 366.559961 
" style="fill:none;stroke:#2ca02c;stroke-width:1.5;"/>
    <path clip-path="url(#pf0a6e7584d)" d="M 301.159946 405.45 
L 301.159946 352.984357 
L 308.019071 352.984357 
L 308.019071 359.837322 
" style="fill:none;stroke:#2ca02c;stroke-width:1.5;"/>
    <path clip-path="url(#pf0a6e7584d)" d="M 297.240446 405.45 
L 297.240446 347.804847 
L 304.589508 347.804847 
L 304.589508 352.984357 
" style="fill:none;stroke:#2ca02c;stroke-width:1.5;"/>
    <path clip-path="url(#pf0a6e7584d)" d="M 324.676946 405.45 
L 324.676946 398.763189 
L 328.596446 398.763189 
L 328.596446 405.45 
" style="fill:none;stroke:#2ca02c;stroke-width:1.5;"/>
    <path clip-path="url(#pf0a6e7584d)" d="M 336.435446 405.45 
L 336.435446 381.396262 
L 340.354946 381.396262 
L 340.354946 405.45 
" style="fill:none;stroke:#2ca02c;stroke-width:1.5;"/>
    <path clip-path="url(#pf0a6e7584d)" d="M 332.515946 405.45 
L 332.515946 377.860213 
L 338.395196 377.860213 
L 338.395196 381.396262 
" style="fill:none;stroke:#2ca02c;stroke-width:1.5;"/>
    <path clip-path="url(#pf0a6e7584d)" d="M 326.636696 398.763189 
L 326.636696 356.301337 
L 335.455571 356.301337 
L 335.455571 377.860213 
" style="fill:none;stroke:#2ca02c;stroke-width:1.5;"/>
    <path clip-path="url(#pf0a6e7584d)" d="M 348.193946 405.45 
L 348.193946 395.641492 
L 352.113446 395.641492 
L 352.113446 405.45 
" style="fill:none;stroke:#2ca02c;stroke-width:1.5;"/>
    <path clip-path="url(#pf0a6e7584d)" d="M 344.274446 405.45 
L 344.274446 353.125027 
L 350.153696 353.125027 
L 350.153696 395.641492 
" style="fill:none;stroke:#2ca02c;stroke-width:1.5;"/>
    <path clip-path="url(#pf0a6e7584d)" d="M 331.046133 356.301337 
L 331.046133 351.343017 
L 347.214071 351.343017 
L 347.214071 353.125027 
" style="fill:none;stroke:#2ca02c;stroke-width:1.5;"/>
    <path clip-path="url(#pf0a6e7584d)" d="M 320.757446 405.45 
L 320.757446 351.099258 
L 339.130102 351.099258 
L 339.130102 351.343017 
" style="fill:none;stroke:#2ca02c;stroke-width:1.5;"/>
    <path clip-path="url(#pf0a6e7584d)" d="M 316.837946 405.45 
L 316.837946 340.002335 
L 329.943774 340.002335 
L 329.943774 351.099258 
" style="fill:none;stroke:#2ca02c;stroke-width:1.5;"/>
    <path clip-path="url(#pf0a6e7584d)" d="M 300.914977 347.804847 
L 300.914977 339.510032 
L 323.39086 339.510032 
L 323.39086 340.002335 
" style="fill:none;stroke:#2ca02c;stroke-width:1.5;"/>
    <path clip-path="url(#pf0a6e7584d)" d="M 359.952446 405.45 
L 359.952446 390.0713 
L 363.871946 390.0713 
L 363.871946 405.45 
" style="fill:none;stroke:#2ca02c;stroke-width:1.5;"/>
    <path clip-path="url(#pf0a6e7584d)" d="M 367.791446 405.45 
L 367.791446 387.884059 
L 371.710946 387.884059 
L 371.710946 405.45 
" style="fill:none;stroke:#2ca02c;stroke-width:1.5;"/>
    <path clip-path="url(#pf0a6e7584d)" d="M 361.912196 390.0713 
L 361.912196 361.426966 
L 369.751196 361.426966 
L 369.751196 387.884059 
" style="fill:none;stroke:#2ca02c;stroke-width:1.5;"/>
    <path clip-path="url(#pf0a6e7584d)" d="M 379.549946 405.45 
L 379.549946 378.312123 
L 383.469446 378.312123 
L 383.469446 405.45 
" style="fill:none;stroke:#2ca02c;stroke-width:1.5;"/>
    <path clip-path="url(#pf0a6e7584d)" d="M 375.630446 405.45 
L 375.630446 375.934128 
L 381.509696 375.934128 
L 381.509696 378.312123 
" style="fill:none;stroke:#2ca02c;stroke-width:1.5;"/>
    <path clip-path="url(#pf0a6e7584d)" d="M 399.147446 405.45 
L 399.147446 379.520999 
L 403.066946 379.520999 
L 403.066946 405.45 
" style="fill:none;stroke:#2ca02c;stroke-width:1.5;"/>
    <path clip-path="url(#pf0a6e7584d)" d="M 395.227946 405.45 
L 395.227946 364.306462 
L 401.107196 364.306462 
L 401.107196 379.520999 
" style="fill:none;stroke:#2ca02c;stroke-width:1.5;"/>
    <path clip-path="url(#pf0a6e7584d)" d="M 391.308446 405.45 
L 391.308446 362.61507 
L 398.167571 362.61507 
L 398.167571 364.306462 
" style="fill:none;stroke:#2ca02c;stroke-width:1.5;"/>
    <path clip-path="url(#pf0a6e7584d)" d="M 406.986446 405.45 
L 406.986446 358.384586 
L 410.905946 358.384586 
L 410.905946 405.45 
" style="fill:none;stroke:#2ca02c;stroke-width:1.5;"/>
    <path clip-path="url(#pf0a6e7584d)" d="M 394.738008 362.61507 
L 394.738008 357.960486 
L 408.946196 357.960486 
L 408.946196 358.384586 
" style="fill:none;stroke:#2ca02c;stroke-width:1.5;"/>
    <path clip-path="url(#pf0a6e7584d)" d="M 387.388946 405.45 
L 387.388946 355.769553 
L 401.842102 355.769553 
L 401.842102 357.960486 
" style="fill:none;stroke:#2ca02c;stroke-width:1.5;"/>
    <path clip-path="url(#pf0a6e7584d)" d="M 378.570071 375.934128 
L 378.570071 355.426761 
L 394.615524 355.426761 
L 394.615524 355.769553 
" style="fill:none;stroke:#2ca02c;stroke-width:1.5;"/>
    <path clip-path="url(#pf0a6e7584d)" d="M 365.831696 361.426966 
L 365.831696 354.656888 
L 386.592797 354.656888 
L 386.592797 355.426761 
" style="fill:none;stroke:#2ca02c;stroke-width:1.5;"/>
    <path clip-path="url(#pf0a6e7584d)" d="M 356.032946 405.45 
L 356.032946 338.351328 
L 376.212246 338.351328 
L 376.212246 354.656888 
" style="fill:none;stroke:#2ca02c;stroke-width:1.5;"/>
    <path clip-path="url(#pf0a6e7584d)" d="M 312.152918 339.510032 
L 312.152918 336.621338 
L 366.122596 336.621338 
L 366.122596 338.351328 
" style="fill:none;stroke:#2ca02c;stroke-width:1.5;"/>
    <path clip-path="url(#pf0a6e7584d)" d="M 293.320946 405.45 
L 293.320946 336.452812 
L 339.137757 336.452812 
L 339.137757 336.621338 
" style="fill:none;stroke:#2ca02c;stroke-width:1.5;"/>
    <path clip-path="url(#pf0a6e7584d)" d="M 289.401446 405.45 
L 289.401446 326.285897 
L 316.229351 326.285897 
L 316.229351 336.452812 
" style="fill:none;stroke:#2ca02c;stroke-width:1.5;"/>
    <path clip-path="url(#pf0a6e7584d)" d="M 414.825446 405.45 
L 414.825446 345.333693 
L 418.744946 345.333693 
L 418.744946 405.45 
" style="fill:none;stroke:#2ca02c;stroke-width:1.5;"/>
    <path clip-path="url(#pf0a6e7584d)" d="M 422.664446 405.45 
L 422.664446 332.077838 
L 426.583946 332.077838 
L 426.583946 405.45 
" style="fill:none;stroke:#2ca02c;stroke-width:1.5;"/>
    <path clip-path="url(#pf0a6e7584d)" d="M 416.785196 345.333693 
L 416.785196 312.998909 
L 424.624196 312.998909 
L 424.624196 332.077838 
" style="fill:none;stroke:#2ca02c;stroke-width:1.5;"/>
    <path clip-path="url(#pf0a6e7584d)" d="M 442.261946 405.45 
L 442.261946 325.93553 
L 446.181446 325.93553 
L 446.181446 405.45 
" style="fill:none;stroke:#2ca02c;stroke-width:1.5;"/>
    <path clip-path="url(#pf0a6e7584d)" d="M 438.342446 405.45 
L 438.342446 318.701318 
L 444.221696 318.701318 
L 444.221696 325.93553 
" style="fill:none;stroke:#2ca02c;stroke-width:1.5;"/>
    <path clip-path="url(#pf0a6e7584d)" d="M 434.422946 405.45 
L 434.422946 312.220094 
L 441.282071 312.220094 
L 441.282071 318.701318 
" style="fill:none;stroke:#2ca02c;stroke-width:1.5;"/>
    <path clip-path="url(#pf0a6e7584d)" d="M 430.503446 405.45 
L 430.503446 307.003035 
L 437.852508 307.003035 
L 437.852508 312.220094 
" style="fill:none;stroke:#2ca02c;stroke-width:1.5;"/>
    <path clip-path="url(#pf0a6e7584d)" d="M 420.704696 312.998909 
L 420.704696 293.134463 
L 434.177977 293.134463 
L 434.177977 307.003035 
" style="fill:none;stroke:#2ca02c;stroke-width:1.5;"/>
    <path clip-path="url(#pf0a6e7584d)" d="M 302.815399 326.285897 
L 302.815399 286.796818 
L 427.441336 286.796818 
L 427.441336 293.134463 
" style="fill:none;stroke:#2ca02c;stroke-width:1.5;"/>
    <path clip-path="url(#pf0a6e7584d)" d="M 283.522196 291.548243 
L 283.522196 274.529228 
L 365.128367 274.529228 
L 365.128367 286.796818 
" style="fill:none;stroke:#2ca02c;stroke-width:1.5;"/>
    <path clip-path="url(#pf0a6e7584d)" d="M 275.683196 359.031447 
L 275.683196 266.058664 
L 324.325282 266.058664 
L 324.325282 274.529228 
" style="fill:none;stroke:#2ca02c;stroke-width:1.5;"/>
    <path clip-path="url(#pf0a6e7584d)" d="M 261.475008 289.241797 
L 261.475008 265.490144 
L 300.004239 265.490144 
L 300.004239 266.058664 
" style="fill:none;stroke:#2ca02c;stroke-width:1.5;"/>
    <path clip-path="url(#pf0a6e7584d)" d="M 228.128637 267.159958 
L 228.128637 261.285233 
L 280.739623 261.285233 
L 280.739623 265.490144 
" style="fill:none;stroke:#2ca02c;stroke-width:1.5;"/>
    <path clip-path="url(#pf0a6e7584d)" d="M 450.100946 405.45 
L 450.100946 256.457029 
L 454.020446 256.457029 
L 454.020446 405.45 
" style="fill:none;stroke:#2ca02c;stroke-width:1.5;"/>
    <path clip-path="url(#pf0a6e7584d)" d="M 254.43413 261.285233 
L 254.43413 250.233378 
L 452.060696 250.233378 
L 452.060696 256.457029 
" style="fill:none;stroke:#2ca02c;stroke-width:1.5;"/>
   </g>
   <g id="LineCollection_3">
    <path clip-path="url(#pf0a6e7584d)" d="M 469.698446 405.45 
L 469.698446 298.210245 
L 473.617946 298.210245 
L 473.617946 405.45 
" style="fill:none;stroke:#ff7f0e;stroke-width:1.5;"/>
    <path clip-path="url(#pf0a6e7584d)" d="M 465.778946 405.45 
L 465.778946 290.345562 
L 471.658196 290.345562 
L 471.658196 298.210245 
" style="fill:none;stroke:#ff7f0e;stroke-width:1.5;"/>
   </g>
   <g id="LineCollection_4">
    <path clip-path="url(#pf0a6e7584d)" d="M 461.859446 405.45 
L 461.859446 214.904643 
L 468.718571 214.904643 
L 468.718571 290.345562 
" style="fill:none;stroke:#000000;stroke-width:1.5;"/>
    <path clip-path="url(#pf0a6e7584d)" d="M 457.939946 405.45 
L 457.939946 211.242428 
L 465.289008 211.242428 
L 465.289008 214.904643 
" style="fill:none;stroke:#000000;stroke-width:1.5;"/>
    <path clip-path="url(#pf0a6e7584d)" d="M 353.247413 250.233378 
L 353.247413 209.245596 
L 461.614477 209.245596 
L 461.614477 211.242428 
" style="fill:none;stroke:#000000;stroke-width:1.5;"/>
    <path clip-path="url(#pf0a6e7584d)" d="M 104.039765 318.854777 
L 104.039765 32.164286 
L 407.430945 32.164286 
L 407.430945 209.245596 
" style="fill:none;stroke:#000000;stroke-width:1.5;"/>
   </g>
   <g id="line2d_6">
    <path clip-path="url(#pf0a6e7584d)" d="M 83.627696 233.343154 
L 475.577696 233.343154 
" style="fill:none;stroke:#ff0000;stroke-dasharray:5.55,2.4;stroke-dashoffset:0;stroke-width:1.5;"/>
   </g>
   <g id="patch_3">
    <path d="M 83.627696 405.45 
L 83.627696 13.5 
" style="fill:none;stroke:#000000;stroke-linecap:square;stroke-linejoin:miter;stroke-width:0.8;"/>
   </g>
   <g id="patch_4">
    <path d="M 475.577696 405.45 
L 475.577696 13.5 
" style="fill:none;stroke:#000000;stroke-linecap:square;stroke-linejoin:miter;stroke-width:0.8;"/>
   </g>
   <g id="patch_5">
    <path d="M 83.627696 405.45 
L 475.577696 405.45 
" style="fill:none;stroke:#000000;stroke-linecap:square;stroke-linejoin:miter;stroke-width:0.8;"/>
   </g>
   <g id="patch_6">
    <path d="M 83.627696 13.5 
L 475.577696 13.5 
" style="fill:none;stroke:#000000;stroke-linecap:square;stroke-linejoin:miter;stroke-width:0.8;"/>
   </g>
  </g>
 </g>
 <defs>
  <clipPath id="pf0a6e7584d">
   <rect height="391.95" width="391.95" x="83.627696" y="13.5"/>
  </clipPath>
 </defs>
</svg>
